<?xml version="1.0" encoding="UTF-8"?>
<svg version="1.1" xmlns="http://www.w3.org/2000/svg" width="1733" height="440">
<path d="M0 0 C4.15594663 3.68367996 7.18076494 7.31908187 8.19921875 12.8984375 C8.46053243 18.75546834 7.44867135 23.79097972 3.75 28.4375 C0.33686452 31.3660985 -2.74348944 33.28057182 -7.25 33.75 C-7.91 33.646875 -8.57 33.54375 -9.25 33.4375 C-9.35183594 34.11425781 -9.45367187 34.79101562 -9.55859375 35.48828125 C-10.39757866 39.06700221 -11.80974762 42.28826211 -13.3125 45.625 C-15.42806756 49.86978448 -15.42806756 49.86978448 -16.25 54.4375 C-15.13625 55.02015625 -14.0225 55.6028125 -12.875 56.203125 C2.10977459 64.19313113 15.49037566 73.64795328 27.75 85.4375 C28.27271484 85.92911621 28.79542969 86.42073242 29.33398438 86.92724609 C55.50078218 111.60966739 71.28773202 142.69621814 79.75 177.4375 C79.92934082 178.1500293 80.10868164 178.86255859 80.29345703 179.59667969 C85.69403021 202.13213995 85.3879734 230.99198326 79.75 253.4375 C79.45198486 254.66895752 79.45198486 254.66895752 79.14794922 255.92529297 C71.4120631 287.17595503 56.45374251 314.73405391 34.75 338.4375 C33.46029297 339.85289062 33.46029297 339.85289062 32.14453125 341.296875 C21.0063194 352.95745382 7.72757296 362.47472616 -6.25 370.4375 C-7.86261719 371.40042969 -7.86261719 371.40042969 -9.5078125 372.3828125 C-35.24543572 387.31056063 -65.65329426 393.89852196 -95.1875 393.8125 C-95.89966675 393.81195618 -96.6118335 393.81141235 -97.34558105 393.81085205 C-118.16184421 393.73841642 -137.42688585 389.63222317 -157.25 383.4375 C-157.35054688 384.11683594 -157.45109375 384.79617188 -157.5546875 385.49609375 C-158.54777615 389.69719349 -160.41247973 393.4701517 -162.25390625 397.35351562 C-163.86685049 400.88587895 -163.86685049 400.88587895 -163.99609375 404.6953125 C-163.74988281 405.27023437 -163.50367188 405.84515625 -163.25 406.4375 C-160.94861263 412.52940775 -160.13939989 417.49858643 -162.875 423.5625 C-165.52085432 428.41166362 -168.92488209 431.6624607 -174.25 433.4375 C-180.79045873 434.17713184 -186.15960349 434.01641408 -191.58984375 430.046875 C-195.68853814 426.07355243 -197.43772436 421.59749591 -197.75 415.9375 C-197.4470344 409.88863519 -195.05851804 405.39672788 -191 401 C-187.32991732 398.91472575 -184.44723584 398.72205836 -180.25 398.4375 C-180.14816406 397.77105469 -180.04632813 397.10460937 -179.94140625 396.41796875 C-179.07727792 392.69294096 -177.65749682 389.26639611 -176.1875 385.75 C-174.08529647 381.24011636 -174.08529647 381.24011636 -173.25 376.4375 C-174.38695312 375.83164062 -175.52390625 375.22578125 -176.6953125 374.6015625 C-218.93311209 351.80933238 -252.1887181 314.91076524 -266.25 268.4375 C-271.21261685 250.79877479 -273.64938607 233.55276039 -273.5625 215.25 C-273.55926727 214.02385986 -273.55926727 214.02385986 -273.55596924 212.77294922 C-273.50521058 200.77630083 -273.1883357 189.12849083 -270.25 177.4375 C-270.04068848 176.59380859 -269.83137695 175.75011719 -269.61572266 174.88085938 C-261.60283119 143.41906047 -247.21011513 115.49246041 -224.68261719 91.9375 C-223.73249393 90.94268792 -222.7877466 89.9427117 -221.84863281 88.9375 C-191.48094522 56.47767526 -146.48551319 37.87602487 -102.30029297 36.37109375 C-78.65913931 35.71666735 -54.41079349 38.90678595 -32.25 47.4375 C-32.07984375 46.89222656 -31.9096875 46.34695312 -31.734375 45.78515625 C-30.38960627 41.60063654 -28.91630026 37.64652311 -27 33.6875 C-25.78132155 31.00361654 -25.23639597 29.72998668 -25.375 26.75 C-26.01710702 25.05300287 -26.688003 23.366826 -27.375 21.6875 C-28.87785241 16.10547677 -28.20625228 10.80975674 -25.625 5.625 C-19.30609537 -2.85563516 -9.31478741 -4.47826318 0 0 Z " fill="#6E5B91" transform="translate(273.25,2.5625)"/>
<path d="M0 0 C9.48082613 7.69134171 15.28938909 18.20287581 18 30 C18.27714844 31.01578125 18.55429687 32.0315625 18.83984375 33.078125 C23.14603591 50.77915454 21.84676738 70.12427837 19 88 C18.846521 89.02746338 18.846521 89.02746338 18.68994141 90.07568359 C10.2603576 144.0678609 -19.94467935 196.83058255 -56 237 C-56.49209961 237.55381348 -56.98419922 238.10762695 -57.49121094 238.67822266 C-77.918444 261.61068241 -109.01886442 290.19525018 -141.36450195 292.14233398 C-157.09743128 292.71256743 -168.96723518 292.11946199 -181 281 C-192.67413063 269.90118587 -198.3495114 253.22802991 -199.19238281 237.38354492 C-199.26837627 233.37843635 -199.28213208 229.3804093 -199.25 225.375 C-199.24623352 224.66424316 -199.24246704 223.95348633 -199.23858643 223.22119141 C-199.0785991 197.47843476 -193.71786462 173.98712542 -184.66088867 149.90917969 C-184.33374878 148.96413574 -184.33374878 148.96413574 -184 148 C-183.76321533 147.3488623 -183.52643066 146.69772461 -183.2824707 146.02685547 C-182.89843442 143.27122087 -183.70065637 142.05300774 -185.0625 139.6484375 C-185.52640137 138.80635742 -185.99030273 137.96427734 -186.46826172 137.09667969 C-186.97373535 136.19852539 -187.47920898 135.30037109 -188 134.375 C-201.86669037 108.81090755 -214.57042098 75.25764405 -206 46 C-205.75507813 45.11054687 -205.51015625 44.22109375 -205.2578125 43.3046875 C-202.14755312 33.42342098 -196.30099955 25.68511364 -187.44140625 20.24609375 C-183.12020004 18.0405501 -178.61331571 16.47474846 -174 15 C-173.01 14.67 -172.02 14.34 -171 14 C-132.52752847 10.22725267 -96.15227801 32.21773633 -67 55 C-66.03578125 55.74894531 -65.0715625 56.49789062 -64.078125 57.26953125 C-50.74703588 67.89890556 -37.92750209 79.94973533 -26.82421875 92.890625 C-23.97856542 96.18110208 -21.04024804 99.38736494 -18.11328125 102.60546875 C-15.99127508 105.00988609 -13.98279012 107.48011097 -12 110 C-6.19969851 95.91355353 -4.81713752 81.76826506 -4.75 66.6875 C-4.729375 65.54087891 -4.70875 64.39425781 -4.6875 63.21289062 C-4.63133165 50.80670697 -7.15210884 40.06406998 -14.1875 29.8125 C-20.35401006 23.64598994 -27.23367776 20.97496009 -35.875 20.625 C-44.25723228 20.68186725 -52.84158623 23.70588132 -60.13671875 27.73046875 C-63.49852851 29.22103924 -64.53856686 28.99519473 -68 28 C-71.10774232 26.29514469 -73.93191758 24.18704307 -76.8125 22.125 C-77.60076172 21.58230469 -78.38902344 21.03960937 -79.20117188 20.48046875 C-79.94560547 19.95324219 -80.69003906 19.42601563 -81.45703125 18.8828125 C-82.13741455 18.40215332 -82.81779785 17.92149414 -83.51879883 17.42626953 C-84.25199341 16.72026611 -84.25199341 16.72026611 -85 16 C-85 15.01 -85 14.02 -85 13 C-82.61310316 11.24011794 -80.28651096 9.70313303 -77.75 8.1875 C-77.0185376 7.74317627 -76.2870752 7.29885254 -75.53344727 6.84106445 C-52.77669843 -6.82791546 -23.79141916 -17.67247548 0 0 Z " fill="#FDFDFD" transform="translate(268,75)"/>
<path d="M0 0 C13.53 0 27.06 0 41 0 C50 11 50 11 54.1875 16.125 C58.11445511 20.92537595 62.05606968 25.71356475 66 30.5 C71.34685204 36.98905001 76.68056318 43.48844833 82 50 C83.49985696 51.83345036 84.9998594 53.66678171 86.5 55.5 C122.5 99.5 122.5 99.5 124.7265625 102.22265625 C126.30300376 104.1485149 127.88125492 106.0728929 129.4609375 107.99609375 C130.25757813 108.96675781 131.05421875 109.93742187 131.875 110.9375 C132.95394531 112.25041016 132.95394531 112.25041016 134.0546875 113.58984375 C135.74965977 115.68983951 137.38078761 117.84105015 139 120 C139.33 80.4 139.66 40.8 140 0 C155.51 0 171.02 0 187 0 C187 66.99 187 133.98 187 203 C173.8 203 160.6 203 147 203 C140.26743165 195.04332831 133.57472192 187.08290186 127 179 C125.50056908 177.16620121 124.00056542 175.33287057 122.5 173.5 C120.30774854 170.8210008 118.11580532 168.14175792 115.92578125 165.4609375 C110.68432888 159.04718247 105.42108858 152.65162647 100.15356445 146.25927734 C96.22747162 141.49373259 92.31301136 136.71890943 88.40625 131.9375 C85.27823847 128.11888852 82.13915083 124.30945577 79 120.5 C75.15935985 115.83926544 71.32120446 111.17669799 67.5 106.5 C61.35146721 98.98512659 55.17251047 91.49519128 49 84 C48.67 123.27 48.34 162.54 48 203 C32.16 203 16.32 203 0 203 C0 136.01 0 69.02 0 0 Z " fill="#000000" transform="translate(521,57)"/>
<path d="M0 0 C13.13592408 -0.06808349 26.27172878 -0.12299258 39.40779018 -0.15543652 C45.50898797 -0.17101683 51.61005759 -0.19211394 57.71118164 -0.22631836 C63.61158043 -0.25918618 69.51185681 -0.27691024 75.41234016 -0.28463173 C77.650716 -0.29012643 79.88908601 -0.30085441 82.12740898 -0.31719017 C109.31729348 -0.50753077 136.3943513 3.13494349 156.828125 22.80078125 C157.54484375 23.52652344 158.2615625 24.25226563 159 25 C159.63421875 25.61230469 160.2684375 26.22460938 160.921875 26.85546875 C173.99189564 40.41706096 177.52916171 59.61243024 177.21484375 77.76953125 C176.6430692 93.27136908 171.42928387 106.82841881 162 119 C161.36320312 119.83789062 160.72640625 120.67578125 160.0703125 121.5390625 C153.84612589 128.93762394 145.53907316 133.71422944 137 138 C140.07168281 143.60656669 143.55152148 148.7898335 147.25 154 C148.50041714 155.77314341 149.7503995 157.54659348 151 159.3203125 C151.65226562 160.24489258 152.30453125 161.16947266 152.9765625 162.12207031 C156.42324297 167.02427463 159.83436935 171.95113719 163.25 176.875 C168.1920821 183.99601547 173.15875156 191.09589092 178.25878906 198.10498047 C181 201.89543006 181 201.89543006 181 203 C173.76030305 203.30550509 166.52227751 203.5148919 159.27758789 203.65917969 C156.81634426 203.71934809 154.35552646 203.80111094 151.89575195 203.90527344 C130.33223056 204.79521039 130.33223056 204.79521039 125.54907227 200.59179688 C123.2121643 197.49655454 121.59986352 194.52469512 120 191 C118.95634542 189.43568902 117.88189314 187.89122384 116.76953125 186.375 C115.78139009 184.91833516 114.79574021 183.45997744 113.8125 182 C109.0500856 174.98520836 104.23883839 168.00739315 99.375 161.0625 C98.78307861 160.21623047 98.19115723 159.36996094 97.58129883 158.49804688 C95.29983103 155.24252844 95.29983103 155.24252844 93 152 C92.64075439 151.2680542 92.28150879 150.5361084 91.91137695 149.78198242 C88.67871032 146.76815769 84.77370946 147.39600736 80.51953125 147.390625 C79.28559631 147.36718018 79.28559631 147.36718018 78.0267334 147.34326172 C74.95561497 147.29068424 71.88398678 147.27239876 68.8125 147.25 C58.5103125 147.12625 58.5103125 147.12625 48 147 C48 165.48 48 183.96 48 203 C32.16 203 16.32 203 0 203 C0 171.98 0 140.96 0 109 C44.75 108.625 44.75 108.625 58.81542969 108.52197266 C63.02116113 108.48200843 63.02116113 108.48200843 67.22686768 108.43954468 C69.08214415 108.42200243 70.93745783 108.40813573 72.79278564 108.39730835 C97.58105613 108.69440535 97.58105613 108.69440535 119 97.6875 C127.05965549 88.68427509 127.68996409 78.63449095 127.18359375 67.05126953 C126.47479711 59.1319751 122.34646882 52.77136353 116.46484375 47.66796875 C103.92587509 38.54621353 86.58537571 39.3967469 71.875 39.390625 C69.79035174 39.37560925 67.70571523 39.35887512 65.62109375 39.34051514 C60.18956899 39.2972103 54.75820459 39.27692514 49.32653809 39.26177979 C43.76186788 39.24207443 38.19736756 39.20012043 32.6328125 39.16015625 C21.75523244 39.08525424 10.8777758 39.03678352 0 39 C0 26.13 0 13.26 0 0 Z " fill="#000000" transform="translate(959,57)"/>
<path d="M0 0 C0.83272934 0.00222061 1.66545868 0.00444122 2.52342224 0.00672913 C3.46432205 0.00680466 4.40522186 0.00688019 5.37463379 0.00695801 C6.39754013 0.01211929 7.42044647 0.01728058 8.47434998 0.02259827 C9.51614914 0.02401321 10.5579483 0.02542816 11.63131714 0.02688599 C14.97355467 0.03250372 18.31572629 0.04505922 21.65794373 0.05775452 C23.91770839 0.06276723 26.17747409 0.06733053 28.4372406 0.07142639 C33.98999763 0.08247891 39.54271597 0.09923428 45.09544373 0.12025452 C50.19137734 10.10180807 55.00528494 20.15985589 59.50657654 30.42298889 C61.22316198 34.33617758 62.95332383 38.24337179 64.68138123 42.15150452 C65.04125122 42.96627258 65.40112122 43.78104065 65.77189636 44.62049866 C69.83348411 53.80792238 73.9646467 62.96379877 78.09544373 72.12025452 C84.13020242 85.50418445 90.12333421 98.90567648 96.07392883 112.32722473 C101.01528604 123.47016138 106.00083416 134.59250251 111.01200867 145.70420837 C117.29440335 159.63506305 123.54310493 173.57996066 129.72044373 187.55775452 C130.0487619 188.29906616 130.37708008 189.04037781 130.71534729 189.80415344 C131.62791988 191.86566751 132.53794071 193.92828573 133.44700623 195.99134827 C134.21778503 197.73822937 134.21778503 197.73822937 135.00413513 199.520401 C136.09544373 202.12025452 136.09544373 202.12025452 136.09544373 203.12025452 C119.26544373 203.12025452 102.43544373 203.12025452 85.09544373 203.12025452 C74.65334533 178.22629195 64.26265805 153.31365719 53.9704895 128.35746765 C53.38458794 126.93680496 53.38458794 126.93680496 52.78684998 125.48744202 C52.39830338 124.54524811 52.00975677 123.6030542 51.60943604 122.63230896 C47.05492916 111.59175844 42.47574829 100.56144586 37.89546204 89.53157043 C33.39191997 78.68567794 28.90201115 67.83503136 24.51683044 56.94056702 C23.24641279 53.26197123 23.24641279 53.26197123 21.09544373 50.12025452 C20.59432068 51.32294983 20.09319763 52.52564514 19.57688904 53.76478577 C19.24023224 54.57276108 18.90357544 55.38073639 18.55671692 56.2131958 C17.7857383 58.06354657 17.01476266 59.91389859 16.24378967 61.76425171 C14.03441627 67.06678585 11.82498598 72.36929627 9.61546326 77.67176819 C5.05820366 88.60856322 0.50159244 99.54562712 -4.05299377 110.48353577 C-11.89351764 129.31148251 -19.73951494 148.13712123 -27.61103821 166.95213318 C-28.3757522 168.78003728 -29.14028573 170.6080169 -29.90461731 172.43608093 C-30.9638395 174.96910024 -32.02391176 177.50176211 -33.08424377 180.03431702 C-33.53304901 181.10798271 -33.53304901 181.10798271 -33.99092102 182.20333862 C-36.92019574 189.19430522 -39.91832493 196.15238138 -42.90455627 203.12025452 C-59.07455627 203.12025452 -75.24455627 203.12025452 -91.90455627 203.12025452 C-90.95635352 198.37924076 -89.42833199 194.49099647 -87.43190002 190.14759827 C-86.90048653 188.97443558 -86.90048653 188.97443558 -86.3583374 187.77757263 C-85.5922534 186.08776351 -84.82382094 184.39901752 -84.05329895 182.71122742 C-82.40218509 179.09412742 -80.76269798 175.47179703 -79.12251282 171.84973145 C-78.27807433 169.98518355 -77.43305769 168.12089738 -76.58747864 166.25686646 C-72.69241577 157.66753258 -68.85237823 149.05443027 -65.02955627 140.43275452 C-64.38093338 138.97138404 -63.7322511 137.51003992 -63.08351135 136.04872131 C-61.38773618 132.22825421 -59.69290587 128.40736867 -57.99830627 124.58638 C-54.34398182 116.34681641 -50.68799507 108.10799218 -47.02955627 99.87025452 C-46.60825439 98.92156494 -46.18695251 97.97287537 -45.75288391 96.99543762 C-39.03227145 81.86626734 -32.25827748 66.76176268 -25.45021057 51.67176819 C-21.69524551 43.34520874 -17.9598826 35.01052853 -14.26002502 26.65931702 C-13.88534088 25.81391861 -13.51065674 24.9685202 -13.12461853 24.09750366 C-11.33456087 20.05705633 -9.5475807 16.01528372 -7.76490784 11.97157288 C-7.13312892 10.54324362 -6.50129615 9.11493818 -5.86940002 7.68666077 C-5.58179306 7.03150482 -5.2941861 6.37634888 -4.99786377 5.70133972 C-2.54228542 0.16052101 -2.54228542 0.16052101 0 0 Z " fill="#000000" transform="translate(1596.904556274414,56.87974548339844)"/>
<path d="M0 0 C0 4.86361307 -1.65558965 6.31571369 -4.75 9.6875 C-11.48932707 17.34757841 -17.31222537 25.539717 -23 34 C-23.75120117 35.11568359 -23.75120117 35.11568359 -24.51757812 36.25390625 C-25.96795475 38.4285257 -27.3949144 40.61639391 -28.8125 42.8125 C-29.25150635 43.47612549 -29.6905127 44.13975098 -30.14282227 44.82348633 C-32.38832467 48.12635731 -32.38832467 48.12635731 -32.76074219 51.94897461 C-31.91182447 54.23772869 -30.83952358 56.07106768 -29.49609375 58.109375 C-29.00302734 58.86347656 -28.50996094 59.61757812 -28.00195312 60.39453125 C-27.48568359 61.17183594 -26.96941406 61.94914062 -26.4375 62.75 C-25.91736328 63.54277344 -25.39722656 64.33554688 -24.86132812 65.15234375 C-23.57920942 67.1049282 -22.29198226 69.05393387 -21 71 C-18.7792824 68.92190832 -17.1909596 66.88045268 -15.65234375 64.26171875 C-15.21728516 63.53114258 -14.78222656 62.80056641 -14.33398438 62.04785156 C-13.64272461 60.87947754 -13.64272461 60.87947754 -12.9375 59.6875 C-2.63883792 42.584609 9.3745777 26.60106983 23 12 C28.19158212 14.83726 32.91586317 17.98689401 37.625 21.5625 C38.67856689 22.36228271 38.67856689 22.36228271 39.75341797 23.17822266 C50.62448465 31.48994091 60.54718717 40.35952741 70.25 50 C71.17312988 50.91378418 72.09625977 51.82756836 73.04736328 52.76904297 C79.12175548 58.87180488 84.67415121 65.23680732 90 72 C90.52464844 72.6609668 91.04929688 73.32193359 91.58984375 74.00292969 C92.86302446 75.617983 94.11972724 77.24598907 95.375 78.875 C95.78621094 79.40351563 96.19742188 79.93203125 96.62109375 80.4765625 C97.76912572 81.96789664 98.88563824 83.48334157 100 85 C100.61101562 85.80695313 101.22203125 86.61390625 101.8515625 87.4453125 C103.4342503 90.96598537 103.13578279 93.43324352 102 97 C100.3539128 100.93265196 98.45100664 104.71093348 96.5 108.5 C95.95827148 109.56573242 95.41654297 110.63146484 94.85839844 111.72949219 C90.5846357 120.0526136 86.04036285 128.12026451 81 136 C80.36964844 136.99386719 79.73929688 137.98773438 79.08984375 139.01171875 C71.47804148 150.71857687 63.02031233 161.83726051 53.9375 172.4375 C53.38940674 173.08243408 52.84131348 173.72736816 52.27661133 174.3918457 C48.36639325 178.87786892 48.36639325 178.87786892 45 180 C24.6052631 168.94776234 6.89945804 149.35816762 -8 132 C-8.88851858 130.99017713 -9.77778002 129.98100714 -10.66796875 128.97265625 C-23.36636586 114.3055154 -33.41851215 98.49847105 -42.6640625 81.45947266 C-43.72876441 79.49934709 -44.8140433 77.5504024 -45.90625 75.60546875 C-55.4747536 57.81721339 -62.45661933 34.89029901 -58.3125 14.640625 C-55.31682472 5.60367123 -50.47722602 0.35810922 -42.1484375 -4.0546875 C-29.3047075 -9.7059287 -12.30203008 -5.23189785 0 0 Z " fill="#755E8B" transform="translate(144,121)"/>
<path d="M0 0 C58.74 0 117.48 0 178 0 C178 12.87 178 25.74 178 39 C156.55 39 135.1 39 113 39 C113 93.12 113 147.24 113 203 C97.16 203 81.32 203 65 203 C65 148.88 65 94.76 65 39 C43.55 39 22.1 39 0 39 C0 26.13 0 13.26 0 0 Z " fill="#000000" transform="translate(1186,57)"/>
<path d="M0 0 C46.53 0 93.06 0 141 0 C141 12.54 141 25.08 141 38 C109.98 38 78.96 38 47 38 C47 53.18 47 68.36 47 84 C83.63 84 120.26 84 158 84 C158 96.54 158 109.08 158 122 C105.86 122 53.72 122 0 122 C0 81.74 0 41.48 0 0 Z " fill="#000000" transform="translate(755,138)"/>
<path d="M0 0 C15.84 0 31.68 0 48 0 C48 66.99 48 133.98 48 203 C32.16 203 16.32 203 0 203 C0 136.01 0 69.02 0 0 Z " fill="#000000" transform="translate(1410,57)"/>
<path d="M0 0 C15.84 0 31.68 0 48 0 C48 66.99 48 133.98 48 203 C32.16 203 16.32 203 0 203 C0 136.01 0 69.02 0 0 Z " fill="#000000" transform="translate(427,57)"/>
<path d="M0 0 C50.82 0 101.64 0 154 0 C154 12.54 154 25.08 154 38 C103.18 38 52.36 38 0 38 C0 25.46 0 12.92 0 0 Z " fill="#000000" transform="translate(755,57)"/>
<path d="M0 0 C3.98050395 1.32683465 4.90330042 3.2500215 7.375 6.625 C11.297356 11.87500222 15.39272243 16.92485457 19.6875 21.875 C20.20940918 22.48037598 20.73131836 23.08575195 21.26904297 23.70947266 C24.5222546 27.43866439 27.92370388 30.9652419 31.44458008 34.44189453 C33.22199752 36.22238082 34.87665997 38.07849548 36.5 40 C44.53123195 49.28331711 53.63140949 57.10150291 63.43212891 64.44848633 C66.52030861 66.78072969 69.33818848 69.1895922 72 72 C59.73826197 83.66360447 42.3694468 93.10566556 25.3125 93.3125 C24.53455078 93.34150391 23.75660156 93.37050781 22.95507812 93.40039062 C15.73573553 93.4786654 10.64027242 91.34024146 5.25 86.5625 C4.5075 85.716875 3.765 84.87125 3 84 C1.9790625 82.9171875 1.9790625 82.9171875 0.9375 81.8125 C-6.20629431 71.442476 -7.36807656 59.73093067 -7.3125 47.5 C-7.30831055 46.24985107 -7.30412109 44.99970215 -7.29980469 43.71166992 C-7.18663914 34.43510507 -6.27003954 26.01367166 -4 17 C-3.6335246 15.421311 -3.27041218 13.84183863 -2.91015625 12.26171875 C-1.97086114 8.16664144 -0.9951995 4.08183347 0 0 Z " fill="#6055A1" transform="translate(101,245)"/>
<path d="M0 0 C18 0 18 0 22.21484375 3.25708008 C23.6472168 5.41181946 23.6472168 5.41181946 24.9375 7.76953125 C25.43999268 8.56147385 25.94248535 9.35341644 26.46020508 10.1693573 C28.0367424 12.68407476 29.51682909 15.24184768 31 17.8125 C32.05134514 19.52514902 33.10859705 21.23418679 34.171875 22.93945312 C36.4935039 26.68597946 38.75566135 30.46139185 40.96948242 34.27253723 C41.9284378 35.88003986 42.96170849 37.44256273 44 39 C44.33 26.13 44.66 13.26 45 0 C50.94 0 56.88 0 63 0 C63 23.1 63 46.2 63 70 C57.06 70 51.12 70 45 70 C41.42640713 66.38108351 40.13744628 64.37991353 38 60 C36.45111629 57.51643755 34.80025356 55.10366048 33.16015625 52.6796875 C32.39587876 51.51719369 31.63432956 50.35290248 30.87524414 49.18701172 C26.91958283 43.12287753 22.95926991 37.06177875 19 31 C18.67 43.87 18.34 56.74 18 70 C12.06 70 6.12 70 0 70 C0 46.9 0 23.8 0 0 Z " fill="#000000" transform="translate(1602,309)"/>
<path d="M0 0 C0.66 0 1.32 0 2 0 C5.69341604 9.0960193 7.99078693 18.41682931 10 28 C10.19722656 28.93972656 10.39445312 29.87945312 10.59765625 30.84765625 C12.82747964 48.31821429 11.44698831 65.53454153 1.390625 80.375 C-5.78787184 89.45549173 -16.70992306 94.28973848 -28 96 C-31.15311673 96.2502055 -34.27574599 96.28608646 -37.4375 96.25 C-38.26354736 96.24613281 -39.08959473 96.24226563 -39.94067383 96.23828125 C-45.84284043 96.15465319 -51.27280433 95.50221526 -57 94 C-55.20824115 85.50946503 -49.71425391 76.43145904 -44 70 C-40.60455095 67.88391583 -37.16047549 67.6589423 -33.20703125 67.33203125 C-28.25117766 66.81894044 -25.33282995 64.57492413 -22 61 C-17.09917343 54.91491199 -14.5330632 48.24754419 -15.296875 40.3984375 C-16.78826945 25.05554541 -11.4629294 16.03793924 -2.39868164 3.91333008 C-0.95671789 2.05244533 -0.95671789 2.05244533 0 0 Z " fill="#FCFCFE" transform="translate(290,250)"/>
<path d="M0 0 C6.93 0 13.86 0 21 0 C24.35305579 7.90806725 27.47562606 15.84251932 30.35546875 23.93359375 C30.74317947 25.01455826 31.1308902 26.09552277 31.53034973 27.20924377 C32.75229782 30.61763303 33.97010287 34.02748292 35.1875 37.4375 C36.41637431 40.87223138 37.646126 44.30664569 38.87678528 47.74073792 C39.63815399 49.86606908 40.39836868 51.99181411 41.15727234 54.11802673 C41.50135635 55.07995438 41.84544037 56.04188202 42.19995117 57.03295898 C42.50019699 57.8739061 42.80044281 58.71485321 43.10978699 59.58128357 C43.73437036 61.27828198 44.40641571 62.95820325 45.11250305 64.62294006 C46 67 46 67 46 70 C39.73 70 33.46 70 27 70 C24 61 24 61 24 58 C15.42 58.33 6.84 58.66 -2 59 C-3.32 62.63 -4.64 66.26 -6 70 C-12.27 70 -18.54 70 -25 70 C-20.28577461 56.4998919 -15.53644125 43.01298551 -10.74584961 29.53979492 C-9.66998865 26.51323796 -8.59572239 23.48611771 -7.52148438 20.45898438 C-6.83082523 18.51559086 -6.1400736 16.5722302 -5.44921875 14.62890625 C-5.13152023 13.7331337 -4.81382172 12.83736115 -4.48649597 11.91444397 C-4.18890884 11.07844162 -3.89132172 10.24243927 -3.5847168 9.38110352 C-3.32603317 8.6531105 -3.06734955 7.92511749 -2.80082703 7.17506409 C-1.91374569 4.76573138 -0.95352684 2.3838171 0 0 Z M10 21 C8.82847622 24.45670732 7.66360923 27.91562122 6.5 31.375 C5.99919922 32.85226562 5.99919922 32.85226562 5.48828125 34.359375 C5.17246094 35.30039062 4.85664062 36.24140625 4.53125 37.2109375 C4.23798828 38.08024902 3.94472656 38.94956055 3.64257812 39.84521484 C2.90474212 41.94467299 2.90474212 41.94467299 3 44 C8.28 44 13.56 44 19 44 C16.36 36.41 13.72 28.82 11 21 C10.67 21 10.34 21 10 21 Z " fill="#000000" transform="translate(1250,309)"/>
<path d="M0 0 C5.14874396 4.25049187 7.80945973 9.85439789 10.1875 16 C10.1875 16.66 10.1875 17.32 10.1875 18 C6.9590237 18.17499733 3.73177074 18.28106618 0.5 18.375 C-0.41201172 18.42527344 -1.32402344 18.47554688 -2.26367188 18.52734375 C-8.95848328 18.67341236 -8.95848328 18.67341236 -11.47607422 16.68823242 C-12.78515625 15.06640625 -12.78515625 15.06640625 -14.8125 12 C-19.74985855 9.41910803 -24.51921448 9.69090788 -29.8125 11 C-34.23326364 13.29224781 -36.67492794 15.4998483 -38.8125 20 C-40.97381675 27.26019782 -40.48561791 34.32697644 -37.0703125 41.0859375 C-34.20153831 45.45146345 -30.87070261 46.74398324 -25.9375 47.9375 C-21.53005098 48.28367895 -17.55689157 47.37564339 -13.8125 45 C-13.2865625 44.14277344 -12.760625 43.28554688 -12.21875 42.40234375 C-9.43824569 39.62635325 -8.8154461 39.63319336 -5.046875 39.51171875 C-3.2181113 39.54484853 -1.38967188 39.60433041 0.4375 39.6875 C1.37335937 39.71005859 2.30921875 39.73261719 3.2734375 39.75585938 C5.57975674 39.81469405 7.88280838 39.89682854 10.1875 40 C7.47023612 49.12119388 3.27426654 55.63503253 -4.81640625 60.96875 C-14.53585845 65.99014996 -25.62423661 66.49229328 -36 63.4375 C-46.05316808 59.66591929 -52.26066319 53.69001192 -56.8125 44 C-60.52121294 34.05390621 -60.21583948 22.1743495 -56.06640625 12.4296875 C-51.46786411 3.51911675 -45.00561045 -2.10213042 -35.6875 -5.875 C-23.20210925 -9.52021024 -10.60518476 -7.21717232 0 0 Z " fill="#000000" transform="translate(910.8125,315)"/>
<path d="M0 0 C3.80080233 2.52202771 6.99279613 5.30164433 9.08984375 9.38671875 C9.61786169 12.37710951 9.89734645 15.35763327 10.08984375 18.38671875 C6.98616878 18.53187552 3.88336348 18.62072728 0.77734375 18.69921875 C-0.10373047 18.74111328 -0.98480469 18.78300781 -1.89257812 18.82617188 C-4.32787361 18.87247027 -6.52175648 18.87140128 -8.91015625 18.38671875 C-10.796875 15.92578125 -10.796875 15.92578125 -11.91015625 13.38671875 C-15.36991483 12.30904746 -15.36991483 12.30904746 -18.91015625 12.38671875 C-19.90015625 13.04671875 -20.89015625 13.70671875 -21.91015625 14.38671875 C-22.21942914 18.08770922 -22.21942914 18.08770922 -20.91015625 21.38671875 C-17.15125972 23.66234076 -13.05044161 24.95609383 -8.91015625 26.38671875 C0.03948207 29.76674842 6.52885257 32.5300572 11.08984375 41.38671875 C12.01171817 47.38658478 12.12550781 53.51861271 9.02734375 58.88671875 C4.66779025 64.7076437 -0.7305149 68.13313058 -7.91015625 69.38671875 C-16.75012426 70.0952242 -25.07714849 69.93696112 -32.91015625 65.38671875 C-36.98781746 61.86108749 -40.61177969 57.72448906 -41.91015625 52.38671875 C-41.91015625 50.73671875 -41.91015625 49.08671875 -41.91015625 47.38671875 C-35.64015625 47.38671875 -29.37015625 47.38671875 -22.91015625 47.38671875 C-22.25015625 49.03671875 -21.59015625 50.68671875 -20.91015625 52.38671875 C-18.23010782 54.57046191 -16.79116275 54.38056391 -13.28515625 54.19921875 C-9.64685577 53.72746972 -9.64685577 53.72746972 -7.91015625 50.38671875 C-7.59774512 47.85587061 -7.59774512 47.85587061 -8.91015625 45.38671875 C-12.7063602 42.9850387 -16.62256827 41.4816473 -20.82421875 39.9453125 C-21.52538818 39.68806396 -22.22655762 39.43081543 -22.94897461 39.16577148 C-24.35717018 38.65519859 -25.76939665 38.15557974 -27.18579102 37.66821289 C-32.74305145 35.68756034 -37.40711659 33.20741274 -40.22265625 27.76171875 C-42.98839383 21.72431599 -42.61786347 15.99638911 -40.91015625 9.69921875 C-32.67405658 -3.94182133 -13.92265619 -6.7828325 0 0 Z " fill="#000000" transform="translate(534.91015625,310.61328125)"/>
<path d="M0 0 C1.30453125 -0.02578125 2.6090625 -0.0515625 3.953125 -0.078125 C8.94977807 0.35368452 12.12730884 1.74188818 15.796875 5.15234375 C16.35890625 5.82394531 16.9209375 6.49554688 17.5 7.1875 C18.07234375 7.85652344 18.6446875 8.52554688 19.234375 9.21484375 C23.68231839 15.18746876 23.43758439 20.98249413 22.75 28.25 C21.07853415 34.44543329 17.05974046 38.7837661 11.75 42.25 C5.72364487 45.16340348 -1.15890033 45.38679475 -7.59765625 43.59765625 C-13.62967277 40.88964113 -17.64447948 36.38806284 -20.625 30.5625 C-21.8848388 23.88535435 -22.74079034 16.95299664 -19.1875 10.875 C-13.90025982 3.63903415 -8.95632342 0.10536851 0 0 Z " fill="#FDFDFE" transform="translate(177.25,195.75)"/>
<path d="M0 0 C5.46330938 1.76093661 10.75714676 3.65744855 16 6 C15.23091787 8.02150045 14.45964511 10.04216752 13.6875 12.0625 C13.23503906 13.2484375 12.78257813 14.434375 12.31640625 15.65625 C11.32387637 18.1773348 10.27894509 20.61506298 9.125 23.0625 C7.93049544 26.18148414 7.7462344 27.01025126 9 30 C11.30138737 36.09190775 12.11060011 41.06108643 9.375 47.125 C6.72914568 51.97416362 3.32511791 55.2249607 -2 57 C-8.54045873 57.73963184 -13.90960349 57.57891408 -19.33984375 53.609375 C-23.43853814 49.63605243 -25.18772436 45.15999591 -25.5 39.5 C-25.1970344 33.45113519 -22.80851804 28.95922788 -18.75 24.5625 C-15.07991732 22.47722575 -12.19723584 22.28455836 -8 22 C-7.90847656 21.35675781 -7.81695312 20.71351563 -7.72265625 20.05078125 C-6.73874644 15.89708631 -5.09838357 12.11113187 -3.4375 8.1875 C-3.10814453 7.39923828 -2.77878906 6.61097656 -2.43945312 5.79882812 C-1.63041094 3.86416204 -0.81576148 1.93184247 0 0 Z " fill="#BC7A3E" transform="translate(101,379)"/>
<path d="M0 0 C4.15594663 3.68367996 7.18076494 7.31908187 8.19921875 12.8984375 C8.46053243 18.75546834 7.44867135 23.79097972 3.75 28.4375 C0.33686452 31.3660985 -2.74348944 33.28057182 -7.25 33.75 C-7.91 33.646875 -8.57 33.54375 -9.25 33.4375 C-9.34152344 34.09105469 -9.43304688 34.74460938 -9.52734375 35.41796875 C-10.48691061 39.42740219 -12.12075611 43.00136353 -13.8125 46.75 C-14.14185547 47.49056641 -14.47121094 48.23113281 -14.81054688 48.99414062 C-15.61917123 50.81061562 -16.43397116 52.62433931 -17.25 54.4375 C-22.48272633 52.79791242 -27.40196636 51.04797965 -32.25 48.4375 C-31.50709406 43.40859823 -29.43505469 39.16241376 -27.24609375 34.609375 C-25.50882636 30.78572427 -24.90273916 28.4512146 -26.25 24.4375 C-26.62125 23.53 -26.9925 22.6225 -27.375 21.6875 C-28.87785241 16.10547677 -28.20625228 10.80975674 -25.625 5.625 C-19.30609537 -2.85563516 -9.31478741 -4.47826318 0 0 Z " fill="#2C40D6" transform="translate(273.25,2.5625)"/>
</svg>
