<svg version="1.1" id="Layer_1" xmlns="http://www.w3.org/2000/svg" xmlns:xlink="http://www.w3.org/1999/xlink" x="0px" y="0px"
	 width="100%" viewBox="0 0 7219 1827" enable-background="new 0 0 7219 1827" xml:space="preserve">
<path fill="#FFFFFF" opacity="1.000000" stroke="none" 
	d="
M1112.000000,2.000007 
	C3148.568359,2.000000 5185.136719,2.000000 7221.852539,2.000000 
	C7221.852539,611.205505 7221.852539,1220.411133 7221.852539,1829.808350 
	C4815.577148,1829.808350 2409.154541,1829.808350 2.000000,1829.808350 
	C2.000000,1536.591919 2.000000,1243.183105 2.572710,948.863892 
	C3.523100,947.895264 3.900780,947.837158 4.813737,948.428955 
	C6.427853,961.382812 7.506692,973.686768 8.481188,986.800781 
	C8.661052,989.186340 8.945259,990.761841 9.125935,992.690308 
	C9.160407,993.554810 9.469589,993.922791 9.852786,995.030640 
	C12.325766,1012.659363 14.895909,1029.404663 17.572380,1046.974609 
	C22.159092,1066.539551 26.639477,1085.279663 31.144791,1104.728638 
	C37.116913,1124.005127 42.482315,1142.786133 49.182739,1161.078003 
	C55.298321,1177.773315 62.860233,1193.938721 69.834351,1211.066650 
	C78.626488,1229.327759 86.884148,1247.122681 96.219841,1264.333130 
	C112.069801,1293.552490 129.598129,1321.756226 150.404846,1348.571045 
	C154.242828,1354.329468 157.611618,1359.678711 161.607986,1364.508789 
	C186.584366,1394.694946 212.603622,1423.938232 241.438171,1450.536377 
	C249.476822,1457.951538 258.048248,1464.789185 266.675354,1472.469971 
	C267.520325,1473.425049 268.107391,1473.753540 268.604156,1474.185791 
	C305.980377,1506.703613 347.206787,1533.574585 390.588562,1557.266846 
	C403.358765,1564.241089 416.251892,1570.990234 428.740173,1578.536011 
	C415.639282,1609.478638 402.886932,1639.727783 390.547089,1668.998413 
	C384.108398,1670.019287 379.084839,1670.335327 374.335449,1671.645386 
	C338.937561,1681.409058 316.223206,1718.489258 323.596222,1754.532837 
	C329.783081,1784.777832 347.405548,1804.856201 377.491241,1812.027222 
	C407.248657,1819.119995 433.015289,1810.844482 452.515778,1786.775513 
	C472.739136,1761.814209 473.578125,1727.156006 454.964752,1699.356201 
	C451.959625,1694.867920 451.502930,1691.546753 453.619751,1686.662231 
	C465.518463,1659.205933 477.073425,1631.600586 489.508911,1604.043457 
	C493.505432,1604.663330 496.884338,1604.877686 499.949341,1605.971558 
	C531.594116,1617.264893 563.843628,1626.459839 596.839966,1632.704102 
	C617.013184,1636.521729 637.438049,1639.010132 658.389404,1642.618652 
	C664.734314,1643.665771 670.439758,1644.189819 676.688171,1645.217163 
	C680.778748,1645.802979 684.326416,1645.885742 688.767822,1646.027832 
	C694.432312,1646.137451 699.203064,1646.187500 704.597656,1646.747681 
	C712.673157,1647.261719 720.124756,1647.265625 728.481689,1647.620605 
	C740.366455,1647.799194 751.346008,1647.627075 763.210144,1647.516602 
	C771.970581,1647.096313 779.846436,1646.614380 788.640381,1646.137451 
	C793.816345,1645.916504 798.074219,1645.690186 803.098022,1645.531982 
	C807.682739,1645.058105 811.501587,1644.516235 816.234863,1644.046387 
	C821.659363,1643.418457 826.161255,1642.660156 830.680847,1642.028564 
	C851.688782,1639.093384 872.934143,1637.327271 893.670471,1633.074707 
	C964.718384,1618.504517 1032.363525,1594.254883 1096.383911,1559.932983 
	C1154.757446,1528.638428 1208.117554,1490.409546 1256.189819,1444.939209 
	C1303.297729,1400.381104 1343.938232,1350.441772 1377.718750,1295.031494 
	C1402.340576,1254.644531 1423.455322,1212.526123 1439.991699,1167.365356 
	C1453.499634,1132.220215 1462.724976,1096.665405 1470.392212,1060.562378 
	C1475.208740,1037.882812 1478.777344,1015.078613 1482.393433,991.955078 
	C1483.139404,991.278259 1483.182983,990.796875 1483.172119,989.455078 
	C1483.632202,985.087769 1483.762329,981.546143 1484.076050,977.179077 
	C1484.893799,964.942810 1485.527832,953.531982 1486.465698,941.914062 
	C1487.171875,941.292236 1487.217773,940.841187 1487.223389,939.443481 
	C1487.423706,916.307678 1487.307739,894.082275 1487.292236,871.411255 
	C1487.188477,870.340881 1486.778442,869.913269 1486.224854,868.770508 
	C1485.936157,840.316284 1482.664185,813.080933 1477.755615,785.198242 
	C1468.787964,729.911987 1454.007568,677.061401 1432.861328,626.066040 
	C1426.408203,610.503967 1418.874268,595.390137 1411.769775,579.352966 
	C1392.151001,537.792847 1368.462158,499.423157 1341.433472,463.174286 
	C1329.775757,447.539978 1316.722412,432.946381 1304.129150,417.220154 
	C1294.322754,406.056030 1285.114868,395.119049 1274.957031,385.149750 
	C1260.044922,370.514252 1245.011841,355.903503 1229.002808,342.510284 
	C1211.234009,327.644867 1192.310547,314.159607 1173.523560,299.520874 
	C1152.494751,285.946075 1132.041016,272.575317 1111.096680,260.023254 
	C1096.974854,251.560059 1082.160645,244.252213 1067.904297,235.716202 
	C1078.794678,209.961456 1089.645630,185.003494 1099.963501,159.827026 
	C1103.444458,151.333557 1106.833130,143.933899 1118.006226,145.855225 
	C1118.916260,146.011734 1119.970459,145.554108 1120.915527,145.250580 
	C1151.556641,135.409927 1169.433105,114.069527 1173.143555,82.620613 
	C1176.529297,53.925312 1164.969238,30.368162 1140.863159,14.308006 
	C1132.306763,8.607456 1121.681030,6.012614 1112.000000,2.000007 
z"/>
<path fill="#FFFFFF" opacity="1.000000" stroke="none" 
	d="
M1.999998,862.000000 
	C2.000000,575.458557 2.000000,288.917114 2.000000,2.000000 
	C364.049713,2.000000 726.099548,2.000000 1088.596436,2.587338 
	C1038.114502,9.768589 1006.239746,72.670174 1044.880249,123.460693 
	C1032.639771,152.072845 1020.236389,181.065979 1007.054443,210.061874 
	C1003.744080,209.422058 1001.186584,208.866272 998.684570,208.123566 
	C972.405029,200.322784 946.134338,192.492111 919.105164,184.381638 
	C897.174255,180.043274 876.080566,175.482559 854.800171,172.095184 
	C835.890137,169.085098 816.773010,167.376328 797.124512,164.685333 
	C791.686035,164.230042 786.870300,164.182602 781.114624,164.095306 
	C756.754272,164.084686 733.333862,164.113907 709.080872,164.053619 
	C703.518799,164.438477 698.789429,164.912857 693.992554,165.555298 
	C693.925049,165.723358 694.002930,166.077072 693.134155,166.032990 
	C688.219666,166.144653 684.174011,166.300369 679.313232,166.545166 
	C666.992188,168.463226 655.486206,170.292191 643.436890,171.692291 
	C598.116943,176.471848 554.658997,187.507614 511.948425,201.535568 
	C467.280518,216.206406 424.439636,235.177155 383.376373,258.100983 
	C329.658051,288.089569 280.409973,324.249786 235.642822,366.395752 
	C200.659195,399.330994 169.283707,435.530182 141.470490,474.716034 
	C132.460892,487.409607 124.556458,500.887604 115.668076,514.503052 
	C101.681740,539.608215 87.693680,563.970337 74.861626,588.926819 
	C68.108734,602.060303 63.376232,616.232727 57.190983,630.392944 
	C43.857300,662.978027 33.195610,695.799072 25.013334,729.398682 
	C22.902378,738.067017 21.559355,746.922485 19.310287,756.257996 
	C16.430382,770.156921 13.570389,783.423340 11.898739,796.837830 
	C9.210453,818.410645 7.307119,840.081238 4.558220,861.738647 
	C3.362877,861.844482 2.681437,861.922241 1.999998,862.000000 
z"/>
<path fill="#966B68" opacity="1.000000" stroke="none" 
	d="
M5.072122,861.710510 
	C7.307119,840.081238 9.210453,818.410645 11.898739,796.837830 
	C13.570389,783.423340 16.430382,770.156921 19.438511,756.966858 
	C21.660757,757.899597 23.450010,759.616089 24.689726,759.283569 
	C27.155584,758.622253 29.373472,756.918762 31.599138,755.497559 
	C58.945206,738.036743 86.313026,720.609619 113.598465,703.054504 
	C155.083923,676.363159 196.469269,649.515930 238.008469,622.908752 
	C243.462814,619.415039 249.573822,616.946533 255.594284,614.861450 
	C258.306580,632.433838 260.220032,649.262390 263.461182,665.831116 
	C267.018219,684.014771 271.798950,701.959106 275.327484,720.075317 
	C261.542389,727.986511 248.304398,735.559387 235.443161,743.725586 
	C200.141968,766.140076 164.955002,788.735535 129.805878,811.388245 
	C95.491516,833.502930 61.340973,855.872314 26.977499,877.910034 
	C18.943823,883.062256 10.340984,887.326965 1.999996,892.000000 
	C2.000000,891.111084 2.000000,890.222229 2.607315,888.202881 
	C3.912223,884.608582 5.111677,882.164062 5.207480,879.677002 
	C5.437766,873.698792 5.150552,867.700623 5.072122,861.710510 
z"/>
<path fill="#8D6771" opacity="1.000000" stroke="none" 
	d="
M1.999996,892.933716 
	C10.340984,887.326965 18.943823,883.062256 26.977499,877.910034 
	C61.340973,855.872314 95.491516,833.502930 129.805878,811.388245 
	C164.955002,788.735535 200.141968,766.140076 235.443161,743.725586 
	C248.304398,735.559387 261.542389,727.986511 275.740723,720.683777 
	C286.496307,748.154968 296.119629,775.085327 305.011108,802.023560 
	C301.002899,803.501526 297.506073,804.618103 294.486969,806.500671 
	C278.444641,816.504028 262.464691,826.610229 246.568954,836.845215 
	C198.881439,867.550171 151.254318,898.348877 103.581299,929.076355 
	C75.701897,947.045837 47.838772,965.042542 19.795023,982.752502 
	C16.636520,984.747192 12.349328,984.954529 8.585531,985.990723 
	C7.506692,973.686768 6.427853,961.382812 4.831921,947.530579 
	C4.311413,941.000793 4.547656,936.002502 4.200937,931.045044 
	C4.033919,928.657043 2.768206,926.345947 2.000006,924.000000 
	C2.000000,913.955811 2.000000,903.911621 1.999996,892.933716 
z"/>
<path fill="#2D41D7" opacity="1.000000" stroke="none" 
	d="
M1007.833008,210.059128 
	C1020.236389,181.065979 1032.639771,152.072845 1044.880249,123.460693 
	C1006.239746,72.670174 1038.114502,9.768589 1089.521729,2.587338 
	C1096.722534,2.000000 1103.445190,2.000000 1111.083862,2.000007 
	C1121.681030,6.012614 1132.306763,8.607456 1140.863159,14.308006 
	C1164.969238,30.368162 1176.529297,53.925312 1173.143555,82.620613 
	C1169.433105,114.069527 1151.556641,135.409927 1120.915527,145.250580 
	C1119.970459,145.554108 1118.916260,146.011734 1118.006226,145.855225 
	C1106.833130,143.933899 1103.444458,151.333557 1099.963501,159.827026 
	C1089.645630,185.003494 1078.794678,209.961456 1067.166992,235.627991 
	C1063.166504,235.070755 1060.154785,233.881958 1057.135742,232.711594 
	C1048.085205,229.202927 1039.031738,225.701447 1029.246338,222.071259 
	C1024.098877,220.124100 1019.636353,218.409653 1015.286865,216.445145 
	C1012.229187,215.064133 1008.262146,214.573868 1007.833008,210.059128 
z"/>
<path fill="#D0CBDE" opacity="1.000000" stroke="none" 
	d="
M4.558219,861.738647 
	C5.150552,867.700623 5.437766,873.698792 5.207480,879.677002 
	C5.111677,882.164062 3.912223,884.608582 2.607315,887.536255 
	C2.000000,879.950928 2.000000,871.901794 1.999998,862.926331 
	C2.681437,861.922241 3.362877,861.844482 4.558219,861.738647 
z"/>
<path fill="#D0CBDE" opacity="1.000000" stroke="none" 
	d="
M2.000006,924.921265 
	C2.768206,926.345947 4.033919,928.657043 4.200937,931.045044 
	C4.547656,936.002502 4.311413,941.000793 4.296643,946.880737 
	C3.900780,947.837158 3.523100,947.895264 2.572710,947.976685 
	C2.000000,940.614197 2.000000,933.228333 2.000006,924.921265 
z"/>
<path fill="#474BBA" opacity="1.000000" stroke="none" 
	d="
M657.749878,1642.095581 
	C637.438049,1639.010132 617.013184,1636.521729 596.839966,1632.704102 
	C563.843628,1626.459839 531.594116,1617.264893 499.949341,1605.971558 
	C496.884338,1604.877686 493.505432,1604.663330 489.215027,1603.358154 
	C484.153229,1600.593018 480.243713,1598.296509 476.126282,1596.468140 
	C463.465729,1590.846313 450.725677,1585.403442 438.027283,1579.171997 
	C440.034851,1576.025757 441.590485,1572.924316 444.100739,1571.281738 
	C459.382904,1561.281372 474.980591,1551.762817 490.252594,1541.747559 
	C495.191071,1538.509155 499.464905,1534.257202 504.914001,1530.320435 
	C511.832764,1529.432251 517.880249,1528.692505 524.779907,1527.963379 
	C553.882141,1524.708740 581.007812,1517.070190 607.427734,1506.775513 
	C663.740234,1484.833008 714.047180,1452.709473 761.310486,1415.522583 
	C775.144043,1404.638306 788.553955,1393.215698 802.912964,1382.012695 
	C806.919800,1381.906616 808.053894,1380.089478 808.034729,1376.506714 
	C814.093445,1371.252075 819.828491,1366.550781 826.373474,1361.893555 
	C832.111938,1360.227417 837.582275,1359.376831 841.881409,1356.667847 
	C870.204285,1338.820068 898.258057,1320.546021 926.432129,1302.461548 
	C961.579590,1279.901001 996.801941,1257.457031 1031.910767,1234.836792 
	C1066.185791,1212.753662 1100.310059,1190.435791 1134.626953,1168.418091 
	C1140.074829,1164.922729 1145.016602,1159.987671 1152.557373,1160.758545 
	C1157.452271,1193.963989 1155.045654,1225.684448 1144.572144,1256.933594 
	C1136.614990,1280.674805 1121.977173,1299.404297 1101.811890,1312.983765 
	C1086.446655,1323.330566 1068.776123,1330.032227 1049.067993,1332.120850 
	C1042.968628,1332.715454 1037.716919,1333.440308 1031.897949,1334.545898 
	C1011.840759,1365.793823 992.350830,1396.660889 972.585388,1427.964233 
	C976.030396,1429.203125 979.364685,1430.402222 981.984131,1431.777344 
	C977.397583,1434.980103 973.740173,1438.341064 969.620178,1440.979858 
	C938.871521,1460.675171 908.006409,1480.188721 877.227112,1499.836426 
	C849.524353,1517.520264 821.850159,1535.249268 794.224548,1553.053345 
	C753.483765,1579.309937 712.783875,1605.630371 672.105347,1631.983276 
	C667.196716,1635.163452 662.529175,1638.715698 657.749878,1642.095581 
z"/>
<path fill="#504FB2" opacity="1.000000" stroke="none" 
	d="
M1152.216064,1159.996582 
	C1145.016602,1159.987671 1140.074829,1164.922729 1134.626953,1168.418091 
	C1100.310059,1190.435791 1066.185791,1212.753662 1031.910767,1234.836792 
	C996.801941,1257.457031 961.579590,1279.901001 926.432129,1302.461548 
	C898.258057,1320.546021 870.204285,1338.820068 841.881409,1356.667847 
	C837.582275,1359.376831 832.111938,1360.227417 826.640747,1361.264404 
	C831.128174,1355.264771 836.019165,1349.798950 841.209106,1344.633301 
	C911.677124,1274.495239 971.948181,1196.332031 1024.152954,1111.861694 
	C1037.614502,1090.080322 1050.346069,1067.847778 1064.187256,1045.864624 
	C1067.638184,1044.785767 1070.540649,1044.021484 1072.957275,1042.490234 
	C1105.459839,1021.895142 1137.920410,1001.233093 1170.338623,980.505188 
	C1198.286011,962.635742 1226.170532,944.668091 1254.074707,926.731079 
	C1291.465942,902.695618 1328.872925,878.684570 1366.228760,854.594238 
	C1398.567871,833.739197 1430.785400,812.694641 1463.220825,791.991150 
	C1467.551514,789.226929 1472.847778,787.975464 1477.697021,786.023560 
	C1482.664185,813.080933 1485.936157,840.316284 1486.260010,869.187988 
	C1486.384399,871.084595 1486.703979,871.530945 1487.191895,871.856873 
	C1487.307739,894.082275 1487.423706,916.307678 1486.996704,939.683105 
	C1486.217041,941.230835 1486.119751,941.660156 1486.161865,942.121155 
	C1485.527832,953.531982 1484.893799,964.942810 1483.335205,977.188171 
	C1474.318359,982.381104 1465.917236,986.254822 1458.185669,991.179932 
	C1420.503906,1015.183655 1382.989990,1039.451294 1345.438232,1063.659058 
	C1315.117920,1083.205078 1284.852539,1102.836670 1254.483643,1122.307007 
	C1251.771240,1124.045898 1248.476074,1124.875854 1244.999023,1125.545654 
	C1237.617676,1095.880127 1228.984619,1067.342773 1217.578003,1038.503052 
	C1215.244385,1041.941040 1213.525024,1044.313965 1211.969849,1046.789917 
	C1195.158203,1073.555298 1178.672607,1100.532104 1161.428711,1127.015381 
	C1154.733887,1137.297241 1148.886230,1147.198608 1152.216064,1159.996582 
z"/>
<path fill="#3D47C6" opacity="1.000000" stroke="none" 
	d="
M658.389404,1642.618652 
	C662.529175,1638.715698 667.196716,1635.163452 672.105347,1631.983276 
	C712.783875,1605.630371 753.483765,1579.309937 794.224548,1553.053345 
	C821.850159,1535.249268 849.524353,1517.520264 877.227112,1499.836426 
	C908.006409,1480.188721 938.871521,1460.675171 969.620178,1440.979858 
	C973.740173,1438.341064 977.397583,1434.980103 982.555786,1431.727295 
	C984.563599,1431.743164 985.284973,1431.985474 986.269592,1432.630371 
	C987.632751,1432.942627 988.732788,1432.852295 990.609375,1432.785156 
	C1001.757019,1434.443604 1012.128113,1436.078613 1023.177490,1438.069092 
	C1039.345337,1439.150513 1054.831665,1440.311401 1070.325928,1440.429688 
	C1078.816284,1440.494629 1087.320312,1438.798950 1096.664307,1437.901367 
	C1104.640625,1436.572998 1111.850220,1435.567139 1118.888550,1433.857178 
	C1177.409546,1419.639893 1218.796997,1385.065063 1240.898438,1328.860229 
	C1247.065918,1313.176270 1250.140991,1296.276245 1255.467285,1279.949463 
	C1259.941406,1278.579834 1263.925781,1277.743530 1267.168213,1275.718994 
	C1285.437012,1264.312012 1303.567017,1252.680664 1321.669678,1241.010010 
	C1353.975708,1220.182983 1386.146484,1199.144897 1418.571777,1178.505737 
	C1425.143677,1174.322510 1431.030884,1168.349609 1439.598267,1167.997681 
	C1423.455322,1212.526123 1402.340576,1254.644531 1377.718750,1295.031494 
	C1343.938232,1350.441772 1303.297729,1400.381104 1256.189819,1444.939209 
	C1208.117554,1490.409546 1154.757446,1528.638428 1096.383911,1559.932983 
	C1032.363525,1594.254883 964.718384,1618.504517 893.670471,1633.074707 
	C872.934143,1637.327271 851.688782,1639.093384 830.680847,1642.028564 
	C826.161255,1642.660156 821.659363,1643.418457 815.490417,1644.042725 
	C809.998413,1644.466064 806.165222,1644.964966 802.332092,1645.463867 
	C798.074219,1645.690186 793.816345,1645.916504 787.757202,1646.083374 
	C778.079163,1646.500977 770.202393,1646.977905 762.325562,1647.454834 
	C751.346008,1647.627075 740.366455,1647.799194 727.863159,1647.176880 
	C718.884216,1646.334106 711.429016,1646.285889 703.973816,1646.237793 
	C699.203064,1646.187500 694.432312,1646.137451 688.194824,1645.566650 
	C683.200439,1644.935303 679.672852,1644.824585 676.145203,1644.713989 
	C670.439758,1644.189819 664.734314,1643.665771 658.389404,1642.618652 
z"/>
<path fill="#5D54A3" opacity="1.000000" stroke="none" 
	d="
M1477.755615,785.198242 
	C1472.847778,787.975464 1467.551514,789.226929 1463.220825,791.991150 
	C1430.785400,812.694641 1398.567871,833.739197 1366.228760,854.594238 
	C1328.872925,878.684570 1291.465942,902.695618 1254.074707,926.731079 
	C1226.170532,944.668091 1198.286011,962.635742 1170.338623,980.505188 
	C1137.920410,1001.233093 1105.459839,1021.895142 1072.957275,1042.490234 
	C1070.540649,1044.021484 1067.638184,1044.785767 1064.341064,1045.152344 
	C1073.948120,1024.989746 1085.190063,1006.038513 1094.183716,986.074341 
	C1110.845093,949.089600 1126.924194,911.803772 1141.905640,874.110596 
	C1161.830688,823.978882 1176.613159,772.170044 1189.609741,719.702393 
	C1193.365479,718.424927 1196.547974,717.411133 1199.282471,715.686584 
	C1217.489868,704.203735 1235.653564,692.649475 1253.734009,680.967651 
	C1296.292358,653.470703 1338.754395,625.824402 1381.353027,598.390015 
	C1391.314697,591.974487 1401.664307,586.161316 1411.835327,580.071045 
	C1418.874268,595.390137 1426.408203,610.503967 1432.861328,626.066040 
	C1454.007568,677.061401 1468.787964,729.911987 1477.755615,785.198242 
z"/>
<path fill="#7C6183" opacity="1.000000" stroke="none" 
	d="
M69.784721,1210.337769 
	C62.860233,1193.938721 55.298321,1177.773315 49.182739,1161.078003 
	C42.482315,1142.786133 37.116913,1124.005127 31.843283,1104.720093 
	C35.881866,1102.770874 39.595181,1102.091064 42.558262,1100.222046 
	C73.713150,1080.570068 104.816536,1060.834351 135.799713,1040.912720 
	C178.787903,1013.272217 221.655350,985.443848 264.585144,957.712341 
	C294.386963,938.461060 324.206696,919.237366 354.563110,900.422729 
	C355.780396,901.989563 356.359711,903.203308 357.141052,904.269104 
	C361.607544,910.361511 361.936127,916.093079 358.850311,923.516541 
	C351.721436,940.666138 345.473206,958.231628 339.816833,975.931702 
	C331.332031,1002.482788 323.660736,1029.293823 314.913361,1056.010742 
	C310.231354,1057.675903 305.932037,1058.781982 302.380066,1061.055664 
	C256.295197,1090.555542 210.337357,1120.253540 164.303955,1149.833862 
	C132.832764,1170.056763 101.293541,1190.173584 69.784721,1210.337769 
z"/>
<path fill="#6F5B91" opacity="1.000000" stroke="none" 
	d="
M1411.769775,579.353027 
	C1401.664307,586.161316 1391.314697,591.974487 1381.353027,598.390015 
	C1338.754395,625.824402 1296.292358,653.470703 1253.734009,680.967651 
	C1235.653564,692.649475 1217.489868,704.203735 1199.282471,715.686584 
	C1196.547974,717.411133 1193.365479,718.424927 1189.698730,718.859985 
	C1189.726440,714.367920 1190.426025,710.779297 1191.168091,707.199463 
	C1199.887329,665.139648 1205.489746,622.663574 1207.549927,579.764160 
	C1209.180908,545.801025 1207.290161,511.952484 1203.697510,478.147095 
	C1208.628418,476.054657 1213.027832,474.450958 1216.880249,471.990601 
	C1238.020142,458.489349 1258.930298,444.627197 1280.127808,431.218414 
	C1287.891968,426.307129 1296.227905,422.299744 1304.302979,417.880005 
	C1316.722412,432.946381 1329.775757,447.539978 1341.433472,463.174286 
	C1368.462158,499.423157 1392.151001,537.792847 1411.769775,579.353027 
z"/>
<path fill="#705C90" opacity="1.000000" stroke="none" 
	d="
M69.834366,1211.066650 
	C101.293541,1190.173584 132.832764,1170.056763 164.303955,1149.833862 
	C210.337357,1120.253540 256.295197,1090.555542 302.380066,1061.055664 
	C305.932037,1058.781982 310.231354,1057.675903 314.938263,1056.784180 
	C303.267853,1107.706421 294.087006,1158.392700 291.593048,1210.117310 
	C290.759674,1227.401978 290.385193,1244.708740 289.065521,1262.015869 
	C285.571960,1263.072144 282.542267,1263.688599 280.099487,1265.233398 
	C263.006927,1276.041260 246.010162,1287.001709 229.031616,1297.988770 
	C204.256699,1314.020996 179.531433,1330.130005 154.747925,1346.149048 
	C153.415253,1347.010376 151.740997,1347.343140 150.225769,1347.921997 
	C129.598129,1321.756226 112.069801,1293.552490 96.219841,1264.333130 
	C86.884148,1247.122681 78.626488,1229.327759 69.834366,1211.066650 
z"/>
<path fill="#444ABE" opacity="1.000000" stroke="none" 
	d="
M1439.991699,1167.365356 
	C1431.030884,1168.349609 1425.143677,1174.322510 1418.571777,1178.505737 
	C1386.146484,1199.144897 1353.975708,1220.182983 1321.669678,1241.010010 
	C1303.567017,1252.680664 1285.437012,1264.312012 1267.168213,1275.718994 
	C1263.925781,1277.743530 1259.941406,1278.579834 1255.445557,1279.025391 
	C1255.317993,1271.486816 1256.120728,1264.894897 1256.758301,1258.287231 
	C1259.675659,1228.053589 1257.437988,1198.048218 1252.575684,1168.177490 
	C1250.291626,1154.146240 1247.831665,1140.143555 1245.451416,1126.127930 
	C1248.476074,1124.875854 1251.771240,1124.045898 1254.483643,1122.307007 
	C1284.852539,1102.836670 1315.117920,1083.205078 1345.438232,1063.659058 
	C1382.989990,1039.451294 1420.503906,1015.183655 1458.185669,991.179932 
	C1465.917236,986.254822 1474.318359,982.381104 1483.151611,978.013550 
	C1483.762329,981.546143 1483.632202,985.087769 1482.952271,989.727051 
	C1482.166870,991.247681 1482.057861,991.701233 1482.075684,992.185242 
	C1478.777344,1015.078613 1475.208740,1037.882812 1470.392212,1060.562378 
	C1462.724976,1096.665405 1453.499634,1132.220215 1439.991699,1167.365356 
z"/>
<path fill="#BD7C3F" opacity="1.000000" stroke="none" 
	d="
M438.016541,1579.890991 
	C450.725677,1585.403442 463.465729,1590.846313 476.126282,1596.468140 
	C480.243713,1598.296509 484.153229,1600.593018 488.451752,1603.360840 
	C477.073425,1631.600586 465.518463,1659.205933 453.619751,1686.662231 
	C451.502930,1691.546753 451.959625,1694.867920 454.964752,1699.356201 
	C473.578125,1727.156006 472.739136,1761.814209 452.515778,1786.775513 
	C433.015289,1810.844482 407.248657,1819.119995 377.491241,1812.027222 
	C347.405548,1804.856201 329.783081,1784.777832 323.596222,1754.532837 
	C316.223206,1718.489258 338.937561,1681.409058 374.335449,1671.645386 
	C379.084839,1670.335327 384.108398,1670.019287 390.547089,1668.998413 
	C402.886932,1639.727783 415.639282,1609.478638 429.396484,1578.529297 
	C432.939697,1578.516357 435.478119,1579.203735 438.016541,1579.890991 
z"/>
<path fill="#83637C" opacity="1.000000" stroke="none" 
	d="
M354.018433,900.001404 
	C324.206696,919.237366 294.386963,938.461060 264.585144,957.712341 
	C221.655350,985.443848 178.787903,1013.272217 135.799713,1040.912720 
	C104.816536,1060.834351 73.713150,1080.570068 42.558262,1100.222046 
	C39.595181,1102.091064 35.881866,1102.770874 31.818352,1104.011353 
	C26.639477,1085.279663 22.159092,1066.539551 18.351841,1046.927368 
	C21.147459,1045.260620 23.486464,1044.807007 25.359560,1043.619019 
	C49.434395,1028.348633 73.447533,1012.980896 97.466660,997.622742 
	C124.838440,980.120911 152.238144,962.662354 179.557983,945.079712 
	C221.096191,918.346436 262.510101,891.419128 304.139954,864.829712 
	C311.887543,859.881287 320.403687,856.136047 329.066956,852.283691 
	C337.718689,868.488403 345.868561,884.244873 354.018433,900.001404 
z"/>
<path fill="#866578" opacity="1.000000" stroke="none" 
	d="
M328.565125,851.835449 
	C320.403687,856.136047 311.887543,859.881287 304.139954,864.829712 
	C262.510101,891.419128 221.096191,918.346436 179.557983,945.079712 
	C152.238144,962.662354 124.838440,980.120911 97.466660,997.622742 
	C73.447533,1012.980896 49.434395,1028.348633 25.359560,1043.619019 
	C23.486464,1044.807007 21.147459,1045.260620 18.245514,1046.102661 
	C14.895909,1029.404663 12.325766,1012.659363 9.801651,994.702026 
	C9.730414,993.058044 9.524343,992.673889 9.229467,992.337402 
	C8.945259,990.761841 8.661052,989.186340 8.481188,986.800781 
	C12.349328,984.954529 16.636520,984.747192 19.795023,982.752502 
	C47.838772,965.042542 75.701897,947.045837 103.581299,929.076355 
	C151.254318,898.348877 198.881439,867.550171 246.568954,836.845215 
	C262.464691,826.610229 278.444641,816.504028 294.486969,806.500671 
	C297.506073,804.618103 301.002899,803.501526 305.442596,802.624023 
	C313.925629,819.422852 321.245392,835.629150 328.565125,851.835449 
z"/>
<path fill="#62579F" opacity="1.000000" stroke="none" 
	d="
M150.404846,1348.571045 
	C151.740997,1347.343140 153.415253,1347.010376 154.747925,1346.149048 
	C179.531433,1330.130005 204.256699,1314.020996 229.031616,1297.988770 
	C246.010162,1287.001709 263.006927,1276.041260 280.099487,1265.233398 
	C282.542267,1263.688599 285.571960,1263.072144 289.258118,1262.882690 
	C292.177948,1284.012329 292.015350,1304.413452 295.615326,1324.626831 
	C300.395996,1351.469482 306.463287,1377.856201 316.859741,1403.097168 
	C320.885345,1412.870605 325.624573,1422.350098 329.612091,1432.504150 
	C319.879730,1438.624512 310.505829,1444.094116 301.285278,1449.811035 
	C289.583618,1457.066406 278.006256,1464.522339 266.375305,1471.891846 
	C258.048248,1464.789185 249.476822,1457.951538 241.438171,1450.536377 
	C212.603622,1423.938232 186.584366,1394.694946 161.607986,1364.508789 
	C157.611618,1359.678711 154.242828,1354.329468 150.404846,1348.571045 
z"/>
<path fill="#80627F" opacity="1.000000" stroke="none" 
	d="
M1304.129150,417.220154 
	C1296.227905,422.299744 1287.891968,426.307129 1280.127808,431.218414 
	C1258.930298,444.627197 1238.020142,458.489349 1216.880249,471.990601 
	C1213.027832,474.450958 1208.628418,476.054657 1203.418091,477.450867 
	C1201.530029,471.951263 1200.818359,467.032501 1199.862671,462.161560 
	C1192.335938,423.800110 1180.267212,387.143494 1157.719360,354.749878 
	C1150.559448,344.463715 1141.987183,335.160675 1134.205566,324.755646 
	C1147.529785,316.093506 1160.709717,308.083435 1173.889771,300.073395 
	C1192.310547,314.159607 1211.234009,327.644867 1229.002808,342.510284 
	C1245.011841,355.903503 1260.044922,370.514252 1274.957031,385.149750 
	C1285.114868,395.119049 1294.322754,406.056030 1304.129150,417.220154 
z"/>
<path fill="#5652AB" opacity="1.000000" stroke="none" 
	d="
M266.675385,1472.469971 
	C278.006256,1464.522339 289.583618,1457.066406 301.285278,1449.811035 
	C310.505829,1444.094116 319.879730,1438.624512 330.147888,1432.917725 
	C336.777588,1441.311523 341.933929,1450.229614 348.198547,1458.286011 
	C379.228912,1498.191528 419.596710,1522.012207 470.834534,1528.298340 
	C482.385132,1529.260620 493.213959,1529.864746 504.042755,1530.468872 
	C499.464905,1534.257202 495.191071,1538.509155 490.252594,1541.747559 
	C474.980591,1551.762817 459.382904,1561.281372 444.100739,1571.281738 
	C441.590485,1572.924316 440.034851,1576.025757 438.027283,1579.171997 
	C435.478119,1579.203735 432.939697,1578.516357 429.744995,1577.835938 
	C416.251892,1570.990234 403.358765,1564.241089 390.588562,1557.266846 
	C347.206787,1533.574585 305.980377,1506.703613 268.604156,1474.185791 
	C268.107391,1473.753540 267.520325,1473.425049 266.675385,1472.469971 
z"/>
<path fill="#8E6871" opacity="1.000000" stroke="none" 
	d="
M1173.523560,299.520874 
	C1160.709717,308.083435 1147.529785,316.093506 1133.630127,324.489197 
	C1130.944458,323.080841 1129.005493,321.256134 1127.008301,319.497498 
	C1096.451172,292.591705 1060.786499,278.175964 1019.477539,275.413818 
	C1008.451782,275.269806 998.134460,275.553314 986.947021,275.824890 
	C976.041809,276.980835 966.006653,278.148712 956.091125,278.666138 
	C959.903015,274.802856 963.286987,271.120758 967.340515,268.457642 
	C985.924561,256.247742 1004.650452,244.251068 1023.437256,232.354523 
	C1027.354126,229.874252 1030.485718,227.321991 1029.979492,222.197159 
	C1039.031738,225.701447 1048.085205,229.202927 1057.135742,232.711594 
	C1060.154785,233.881958 1063.166504,235.070755 1066.918945,236.339325 
	C1082.160645,244.252213 1096.974854,251.560059 1111.096680,260.023254 
	C1132.041016,272.575317 1152.494751,285.946075 1173.523560,299.520874 
z"/>
<path fill="#5652AB" opacity="1.000000" stroke="none" 
	d="
M763.210144,1647.516602 
	C770.202393,1646.977905 778.079163,1646.500977 786.839111,1646.078125 
	C779.846436,1646.614380 771.970581,1647.096313 763.210144,1647.516602 
z"/>
<path fill="#5652AB" opacity="1.000000" stroke="none" 
	d="
M704.597656,1646.747803 
	C711.429016,1646.285889 718.884216,1646.334106 726.957886,1646.825928 
	C720.124756,1647.265625 712.673157,1647.261719 704.597656,1646.747803 
z"/>
<path fill="#5652AB" opacity="1.000000" stroke="none" 
	d="
M803.098022,1645.531982 
	C806.165222,1644.964966 809.998413,1644.466064 814.575928,1643.970703 
	C811.501587,1644.516235 807.682739,1645.058105 803.098022,1645.531982 
z"/>
<path fill="#D0CBDE" opacity="1.000000" stroke="none" 
	d="
M676.688171,1645.217163 
	C679.672852,1644.824585 683.200439,1644.935303 687.301025,1645.507080 
	C684.326416,1645.885742 680.778748,1645.802979 676.688171,1645.217163 
z"/>
<path fill="#62579F" opacity="1.000000" stroke="none" 
	d="
M1487.292236,871.411255 
	C1486.703979,871.530945 1486.384399,871.084595 1486.197998,870.100220 
	C1486.778442,869.913269 1487.188477,870.340881 1487.292236,871.411255 
z"/>
<path fill="#62579F" opacity="1.000000" stroke="none" 
	d="
M1486.465820,941.914062 
	C1486.119751,941.660156 1486.217041,941.230835 1486.680420,940.593506 
	C1487.217773,940.841187 1487.171875,941.292236 1486.465820,941.914062 
z"/>
<path fill="#504FB2" opacity="1.000000" stroke="none" 
	d="
M1482.393433,991.955078 
	C1482.057861,991.701233 1482.166870,991.247681 1482.622314,990.552612 
	C1483.182983,990.796875 1483.139404,991.278259 1482.393433,991.955078 
z"/>
<path fill="#8D6771" opacity="1.000000" stroke="none" 
	d="
M9.125937,992.690308 
	C9.524343,992.673889 9.730414,993.058044 9.898816,993.818481 
	C9.469589,993.922791 9.160407,993.554810 9.125937,992.690308 
z"/>
<path fill="#A67256" opacity="1.000000" stroke="none" 
	d="
M57.731422,629.935974 
	C63.376232,616.232727 68.108734,602.060303 74.861626,588.926819 
	C87.693680,563.970337 101.681740,539.608215 116.357155,514.422668 
	C120.218903,511.964172 122.844231,509.973358 125.618530,508.217957 
	C144.671387,496.162872 163.805130,484.235077 182.817612,472.116882 
	C210.501923,454.471466 238.135056,436.745270 265.737640,418.972229 
	C306.722931,392.582184 347.642853,366.090668 388.626648,339.698334 
	C432.955994,311.151611 477.330505,282.675079 521.677185,254.155350 
	C535.343506,245.366455 548.975647,236.524551 562.636658,227.727432 
	C588.287170,211.209564 613.979980,194.756714 639.538940,178.098450 
	C641.489441,176.827225 642.521362,174.146606 643.980286,172.121124 
	C655.486206,170.292191 666.992188,168.463226 679.879517,167.015213 
	C685.508301,166.956467 689.755615,166.516769 694.002930,166.077072 
	C694.002930,166.077072 693.925049,165.723358 694.836121,165.684555 
	C700.270935,165.655502 704.794739,165.665237 710.294312,165.770691 
	C733.517456,165.918503 755.764832,165.970596 777.936279,166.718658 
	C775.365417,169.923096 773.221619,172.972610 770.320679,174.855408 
	C744.430237,191.658661 718.381958,208.218414 692.427368,224.923065 
	C654.471375,249.351883 616.577698,273.877502 578.613647,298.293762 
	C544.557007,320.196960 510.416229,341.969666 476.416016,363.959808 
	C474.467743,365.219879 473.452820,367.922943 471.068481,370.034912 
	C459.889771,370.062256 449.640961,369.795929 439.404663,370.045013 
	C434.211304,370.171387 429.040558,371.227173 422.992615,371.861603 
	C413.257385,373.247070 404.277557,374.137665 395.539795,376.104095 
	C351.908905,385.923615 316.038177,407.844421 290.356781,445.039276 
	C278.303314,462.496582 268.574493,481.144196 262.953735,502.084167 
	C258.975891,503.759460 255.480652,505.016937 252.435638,506.974670 
	C214.259048,531.519531 176.141968,556.157104 138.021667,580.789490 
	C115.202797,595.534485 92.459183,610.397156 69.540970,624.985779 
	C65.992073,627.244812 61.686859,628.315674 57.731422,629.935974 
z"/>
<path fill="#966B68" opacity="1.000000" stroke="none" 
	d="
M1029.246338,222.071259 
	C1030.485718,227.321991 1027.354126,229.874252 1023.437256,232.354523 
	C1004.650452,244.251068 985.924561,256.247742 967.340515,268.457642 
	C963.286987,271.120758 959.903015,274.802856 955.316650,278.937744 
	C882.803467,294.518311 820.945740,329.350311 761.685425,371.987122 
	C769.213562,377.428497 775.611938,382.053345 781.892517,387.326782 
	C780.437622,389.350006 779.306580,391.047546 777.732910,392.051208 
	C750.471252,409.438599 723.155212,426.740692 695.156555,443.967163 
	C675.120300,434.384247 655.953674,424.513977 636.380615,415.529205 
	C621.062805,408.497772 605.241150,402.563904 590.369690,396.043243 
	C595.690430,393.328064 600.407349,390.904022 604.859375,388.064636 
	C632.537231,370.412292 660.182373,352.708191 687.787537,334.942352 
	C726.545654,309.998932 765.295166,285.041656 803.982361,259.988525 
	C842.650879,234.947525 881.238281,209.781128 919.861206,184.669693 
	C946.134338,192.492111 972.405029,200.322784 998.684570,208.123566 
	C1001.186584,208.866272 1003.744080,209.422058 1007.054443,210.061874 
	C1008.262146,214.573868 1012.229187,215.064133 1015.286865,216.445145 
	C1019.636353,218.409653 1024.098877,220.124100 1029.246338,222.071259 
z"/>
<path fill="#9F6F5E" opacity="1.000000" stroke="none" 
	d="
M919.105164,184.381638 
	C881.238281,209.781128 842.650879,234.947525 803.982361,259.988525 
	C765.295166,285.041656 726.545654,309.998932 687.787537,334.942352 
	C660.182373,352.708191 632.537231,370.412292 604.859375,388.064636 
	C600.407349,390.904022 595.690430,393.328064 589.617065,396.031433 
	C584.980225,395.119110 581.798950,394.187378 578.668091,393.109406 
	C546.041992,381.875763 512.461243,375.161133 477.635376,371.442566 
	C475.405121,370.695251 473.704315,370.324829 472.003479,369.954407 
	C473.452820,367.922943 474.467743,365.219879 476.416016,363.959808 
	C510.416229,341.969666 544.557007,320.196960 578.613647,298.293762 
	C616.577698,273.877502 654.471375,249.351883 692.427368,224.923065 
	C718.381958,208.218414 744.430237,191.658661 770.320679,174.855408 
	C773.221619,172.972610 775.365417,169.923096 778.719666,166.692627 
	C780.620422,165.883377 781.661926,165.796112 783.531860,165.707367 
	C788.822693,165.501633 793.284973,165.297409 797.747253,165.093185 
	C816.773010,167.376328 835.890137,169.085098 854.800171,172.095184 
	C876.080566,175.482559 897.174255,180.043274 919.105164,184.381638 
z"/>
<path fill="#AD7450" opacity="1.000000" stroke="none" 
	d="
M643.436890,171.692276 
	C642.521362,174.146606 641.489441,176.827225 639.538940,178.098450 
	C613.979980,194.756714 588.287170,211.209564 562.636658,227.727432 
	C548.975647,236.524551 535.343506,245.366455 521.677185,254.155350 
	C477.330505,282.675079 432.955994,311.151611 388.626648,339.698334 
	C347.642853,366.090668 306.722931,392.582184 265.737640,418.972229 
	C238.135056,436.745270 210.501923,454.471466 182.817612,472.116882 
	C163.805130,484.235077 144.671387,496.162872 125.618530,508.217957 
	C122.844231,509.973358 120.218903,511.964172 116.835571,513.926392 
	C124.556458,500.887604 132.460892,487.409607 141.470490,474.716034 
	C169.283707,435.530182 200.659195,399.330994 235.642822,366.395752 
	C280.409973,324.249786 329.658051,288.089569 383.376373,258.100983 
	C424.439636,235.177155 467.280518,216.206406 511.948425,201.535568 
	C554.658997,187.507614 598.116943,176.471848 643.436890,171.692276 
z"/>
<path fill="#9F6F5E" opacity="1.000000" stroke="none" 
	d="
M57.190987,630.392944 
	C61.686859,628.315674 65.992073,627.244812 69.540970,624.985779 
	C92.459183,610.397156 115.202797,595.534485 138.021667,580.789490 
	C176.141968,556.157104 214.259048,531.519531 252.435638,506.974670 
	C255.480652,505.016937 258.975891,503.759460 262.962097,502.861267 
	C257.515350,526.052673 254.421417,549.014893 254.242035,572.302063 
	C254.134979,586.198669 254.969437,600.102539 255.380676,614.003113 
	C249.573822,616.946533 243.462814,619.415039 238.008469,622.908752 
	C196.469269,649.515930 155.083923,676.363159 113.598465,703.054504 
	C86.313026,720.609619 58.945206,738.036743 31.599138,755.497559 
	C29.373472,756.918762 27.155584,758.622253 24.689726,759.283569 
	C23.450010,759.616089 21.660757,757.899597 19.991779,756.400818 
	C21.559355,746.922485 22.902378,738.067017 25.013334,729.398682 
	C33.195610,695.799072 43.857300,662.978027 57.190987,630.392944 
z"/>
<path fill="#AD7450" opacity="1.000000" stroke="none" 
	d="
M782.703369,165.708847 
	C781.661926,165.796112 780.620422,165.883377 778.795593,165.996674 
	C755.764832,165.970596 733.517456,165.918503 710.445862,165.389038 
	C709.621643,164.911652 709.913513,164.143127 709.913513,164.143127 
	C733.333862,164.113907 756.754272,164.084686 781.274902,164.488708 
	C782.375244,164.921967 782.703369,165.708847 782.703369,165.708847 
z"/>
<path fill="#D0CBDE" opacity="1.000000" stroke="none" 
	d="
M783.531860,165.707367 
	C782.703369,165.708847 782.375244,164.921967 782.214905,164.528564 
	C786.870300,164.182602 791.686035,164.230042 797.124512,164.685333 
	C793.284973,165.297409 788.822693,165.501633 783.531860,165.707367 
z"/>
<path fill="#D0CBDE" opacity="1.000000" stroke="none" 
	d="
M709.080872,164.053619 
	C709.913513,164.143127 709.621643,164.911652 709.470093,165.293320 
	C704.794739,165.665237 700.270935,165.655502 694.903564,165.516510 
	C698.789429,164.912857 703.518799,164.438477 709.080872,164.053619 
z"/>
<path fill="#AD7450" opacity="1.000000" stroke="none" 
	d="
M693.134155,166.032990 
	C689.755615,166.516769 685.508301,166.956467 680.694641,166.926117 
	C684.174011,166.300369 688.219666,166.144653 693.134155,166.032990 
z"/>
<path fill="#FEFEFE" opacity="1.000000" stroke="none" 
	d="
M255.594284,614.861450 
	C254.969437,600.102539 254.134979,586.198669 254.242035,572.302063 
	C254.421417,549.014893 257.515350,526.052673 263.653931,502.768921 
	C268.574493,481.144196 278.303314,462.496582 290.356781,445.039276 
	C316.038177,407.844421 351.908905,385.923615 395.539795,376.104095 
	C404.277557,374.137665 413.257385,373.247070 423.933350,371.988647 
	C443.215637,372.017761 460.690216,371.918610 478.164764,371.819458 
	C512.461243,375.161133 546.041992,381.875763 578.668091,393.109406 
	C581.798950,394.187378 584.980225,395.119110 588.890747,396.130554 
	C605.241150,402.563904 621.062805,408.497772 636.380615,415.529205 
	C655.953674,424.513977 675.120300,434.384247 695.590088,444.503235 
	C713.625427,455.123840 730.658142,464.909698 747.399963,475.170135 
	C760.437500,483.160339 773.113037,491.741272 786.313293,500.622742 
	C812.421448,520.830994 838.165710,540.476196 864.151611,560.755859 
	C880.939575,575.832886 897.736694,590.000610 913.960266,604.797180 
	C929.450439,618.924805 944.343323,633.707214 959.805847,648.811890 
	C997.233765,691.180542 1034.353760,732.939941 1071.486572,774.687927 
	C1071.915161,775.169617 1072.487793,775.539001 1073.039307,775.888123 
	C1073.284180,776.043091 1073.646484,776.072021 1073.950684,776.057983 
	C1074.276367,776.043152 1074.596558,775.910339 1075.275146,775.739258 
	C1076.114624,773.112793 1077.099731,770.323364 1077.900391,767.481934 
	C1090.722290,721.982056 1100.611084,675.941711 1104.575073,628.711426 
	C1106.610596,604.459351 1107.002319,580.256775 1105.411865,555.194397 
	C1102.375488,536.076843 1100.218384,517.520325 1095.809692,499.515137 
	C1090.243042,476.780396 1080.853882,455.497589 1064.622314,437.087463 
	C1042.868286,410.735382 1014.966370,397.953552 981.331970,394.960236 
	C974.484985,394.821075 968.263489,395.147705 961.172363,395.604553 
	C951.533020,397.211090 942.763367,398.687439 933.205139,400.108398 
	C903.559937,406.286682 877.107300,418.628632 850.917603,432.683044 
	C847.729980,430.571442 844.701721,428.580444 841.688477,426.566986 
	C821.794006,413.273407 801.902710,399.974976 782.010376,386.678162 
	C775.611938,382.053345 769.213562,377.428497 761.685425,371.987122 
	C820.945740,329.350311 882.803467,294.518311 955.197083,279.588226 
	C966.006653,278.148712 976.041809,276.980835 987.886475,275.970215 
	C999.859314,276.032135 1010.022644,275.936737 1020.185974,275.841339 
	C1060.786499,278.175964 1096.451172,292.591705 1127.008301,319.497498 
	C1129.005493,321.256134 1130.944458,323.080841 1133.485962,325.141296 
	C1141.987183,335.160675 1150.559448,344.463715 1157.719360,354.749878 
	C1180.267212,387.143494 1192.335938,423.800110 1199.862671,462.161560 
	C1200.818359,467.032501 1201.530029,471.951263 1202.634155,477.544067 
	C1207.290161,511.952484 1209.180908,545.801025 1207.549927,579.764160 
	C1205.489746,622.663574 1199.887329,665.139648 1191.168091,707.199463 
	C1190.426025,710.779297 1189.726440,714.367920 1188.918213,718.794861 
	C1176.613159,772.170044 1161.830688,823.978882 1141.905640,874.110596 
	C1126.924194,911.803772 1110.845093,949.089600 1094.183716,986.074341 
	C1085.190063,1006.038513 1073.948120,1024.989746 1063.566650,1045.110229 
	C1050.346069,1067.847778 1037.614502,1090.080322 1024.152954,1111.861694 
	C971.948181,1196.332031 911.677124,1274.495239 841.209106,1344.633301 
	C836.019165,1349.798950 831.128174,1355.264771 825.830811,1361.220215 
	C819.828491,1366.550781 814.093445,1371.252075 807.445923,1376.763428 
	C805.074890,1379.062256 803.616455,1380.551025 802.158020,1382.039795 
	C788.553955,1393.215698 775.144043,1404.638306 761.310486,1415.522583 
	C714.047180,1452.709473 663.740234,1484.833008 607.427734,1506.775513 
	C581.007812,1517.070190 553.882141,1524.708740 523.853516,1527.847290 
	C504.754242,1527.793823 487.433502,1527.867065 470.112732,1527.940430 
	C419.596710,1522.012207 379.228912,1498.191528 348.198547,1458.286011 
	C341.933929,1450.229614 336.777588,1441.311523 330.574524,1432.377075 
	C325.624573,1422.350098 320.885345,1412.870605 316.859741,1403.097168 
	C306.463287,1377.856201 300.395996,1351.469482 295.615326,1324.626831 
	C292.015350,1304.413452 292.177948,1284.012329 289.993561,1262.872314 
	C290.385193,1244.708740 290.759674,1227.401978 291.593048,1210.117310 
	C294.087006,1158.392700 303.267853,1107.706421 315.668365,1056.767700 
	C323.660736,1029.293823 331.332031,1002.482788 339.816833,975.931702 
	C345.473206,958.231628 351.721436,940.666138 358.850311,923.516541 
	C361.936127,916.093079 361.607544,910.361511 357.141052,904.269104 
	C356.359711,903.203308 355.780396,901.989563 354.563110,900.422729 
	C345.868561,884.244873 337.718689,868.488403 329.066956,852.283691 
	C321.245392,835.629150 313.925629,819.422852 306.174438,802.616089 
	C296.119629,775.085327 286.496307,748.154968 276.459717,720.616211 
	C271.798950,701.959106 267.018219,684.014771 263.461182,665.831116 
	C260.220032,649.262390 258.306580,632.433838 255.594284,614.861450 
M608.146545,504.909821 
	C607.451172,504.736572 606.755859,504.563293 605.158569,503.887970 
	C604.814941,503.868958 604.471375,503.849976 603.141052,502.803711 
	C571.165466,490.046326 538.358643,480.551941 502.617249,476.541260 
	C491.782928,476.850739 480.948578,477.160217 468.398254,477.754333 
	C443.666412,480.043915 421.011414,487.687012 401.381989,503.391846 
	C375.059082,524.451904 363.053162,553.615540 358.652252,585.403931 
	C355.436554,608.631653 355.588776,632.568481 360.200928,657.630920 
	C362.137573,668.066467 363.667236,678.597717 366.093109,688.918274 
	C371.632172,712.483276 378.033997,735.811035 387.953339,759.533936 
	C389.949219,764.777161 391.870453,770.050293 393.954254,775.258362 
	C401.665436,794.530884 410.091766,813.450928 421.932312,832.124084 
	C429.189209,844.944275 436.446106,857.764526 443.979828,871.932617 
	C449.596130,882.096375 455.126495,892.309021 460.866150,902.402649 
	C463.611877,907.231201 466.754517,911.833984 469.878906,917.907837 
	C472.550232,922.056335 475.026917,926.346497 477.926270,930.328979 
	C491.112671,948.441833 504.417999,966.468079 518.058960,985.803833 
	C528.813782,999.364685 539.093689,1013.337830 550.429138,1026.394653 
	C569.833191,1048.745117 589.897705,1070.522095 610.270569,1093.718872 
	C626.250549,1110.231445 641.951843,1127.025146 658.265686,1143.200928 
	C697.844116,1182.444092 739.763428,1218.891968 787.008972,1248.814453 
	C790.020447,1250.721680 793.098389,1252.523926 796.542786,1254.616455 
	C807.434204,1242.685059 817.933044,1231.544556 828.036377,1220.056152 
	C887.012695,1152.994019 936.914856,1079.607056 979.930542,1001.451538 
	C999.685425,965.558594 1017.568787,928.745850 1033.682129,891.075500 
	C1035.241577,887.429749 1037.063477,884.085999 1034.043091,879.944641 
	C1024.447144,866.787231 1015.188110,853.384033 1005.362122,838.791016 
	C996.905640,827.779419 988.926819,816.357727 979.897095,805.838074 
	C958.471558,780.877258 936.547913,756.344055 914.189209,730.420471 
	C894.499451,708.598083 873.551636,688.095215 849.952332,668.513916 
	C837.876648,657.680725 825.801025,646.847473 813.496216,634.699524 
	C798.848816,623.175415 784.201477,611.651306 768.856384,599.039795 
	C747.190186,582.730225 724.987488,567.233093 701.153198,552.914856 
	C698.047424,556.392212 695.674133,559.159912 693.185364,561.819458 
	C651.761597,606.085571 614.635986,653.746216 580.882568,704.064514 
	C576.485840,710.618958 572.360413,717.355408 567.222473,725.043762 
	C551.287720,751.219543 535.352966,777.395325 519.099548,804.094604 
	C512.926697,794.936951 507.225159,786.478455 501.187988,776.738708 
	C488.124573,756.490051 475.061157,736.241333 462.787842,714.883606 
	C505.954315,642.276184 553.938782,573.149841 610.559570,510.255768 
	C611.321472,509.409424 611.609680,508.136658 612.245239,506.796783 
	C610.642212,506.323578 609.731079,506.054626 608.146545,504.909821 
M551.592712,1407.934692 
	C567.935669,1403.585693 584.712952,1400.428711 600.539551,1394.662354 
	C646.688660,1377.848267 686.846069,1350.665161 724.856628,1320.086670 
	C725.851868,1319.286133 726.577515,1318.150513 727.065796,1317.588867 
	C706.723450,1302.236328 686.583801,1287.005493 666.398560,1271.835205 
	C663.261963,1269.477905 659.719971,1267.634033 656.716187,1265.131592 
	C652.451538,1261.578735 648.512146,1257.635376 643.800720,1252.650146 
	C615.440918,1224.768555 587.060425,1196.907959 558.738708,1168.987793 
	C553.096008,1163.425049 547.677734,1157.634521 541.667358,1150.689697 
	C502.204193,1107.954834 464.262604,1063.932495 429.272736,1015.663391 
	C427.712860,1020.598389 426.693604,1023.699890 425.750549,1026.824463 
	C409.550751,1080.498779 398.175781,1135.127319 394.710449,1191.161865 
	C393.665894,1208.052002 394.702057,1225.070679 394.513092,1243.663330 
	C394.936066,1247.969604 395.477020,1252.267944 395.762695,1256.583252 
	C397.512482,1283.012939 403.670563,1308.427734 414.246918,1332.641724 
	C421.740051,1349.796875 431.155670,1365.855347 446.535492,1379.226196 
	C463.960663,1395.414185 484.322235,1405.382080 509.312347,1409.293091 
	C520.727539,1409.552368 532.142090,1409.912720 543.558411,1409.980347 
	C545.689575,1409.992920 547.827820,1408.831421 551.592712,1407.934692 
z"/>
<path fill="#FEFEFE" opacity="1.000000" stroke="none" 
	d="
M1244.999023,1125.545654 
	C1247.831665,1140.143555 1250.291626,1154.146240 1252.575684,1168.177490 
	C1257.437988,1198.048218 1259.675659,1228.053589 1256.758301,1258.287231 
	C1256.120728,1264.894897 1255.317993,1271.486816 1254.613037,1279.010010 
	C1250.140991,1296.276245 1247.065918,1313.176270 1240.898438,1328.860229 
	C1218.796997,1385.065063 1177.409546,1419.639893 1118.888550,1433.857178 
	C1111.850220,1435.567139 1104.640625,1436.572998 1095.754150,1437.796021 
	C1089.014282,1437.814819 1084.026001,1437.848633 1079.048218,1438.093140 
	C1071.446045,1438.466187 1063.844482,1439.441650 1056.254517,1439.333496 
	C1044.997314,1439.173462 1033.750488,1438.289429 1022.499207,1437.713623 
	C1012.128113,1436.078613 1001.757019,1434.443604 990.006836,1432.516357 
	C987.753906,1432.225342 986.880188,1432.226440 986.006409,1432.227539 
	C985.284973,1431.985474 984.563599,1431.743164 983.270630,1431.551025 
	C979.364685,1430.402222 976.030396,1429.203125 972.585388,1427.964233 
	C992.350830,1396.660889 1011.840759,1365.793823 1032.732422,1334.612061 
	C1039.394653,1333.615112 1044.655151,1332.932983 1049.915771,1332.250854 
	C1068.776123,1330.032227 1086.446655,1323.330566 1101.811890,1312.983765 
	C1121.977173,1299.404297 1136.614990,1280.674805 1144.572144,1256.933594 
	C1155.045654,1225.684448 1157.452271,1193.963989 1152.557373,1160.758545 
	C1148.886230,1147.198608 1154.733887,1137.297241 1161.428711,1127.015381 
	C1178.672607,1100.532104 1195.158203,1073.555298 1211.969849,1046.789917 
	C1213.525024,1044.313965 1215.244385,1041.941040 1217.578003,1038.503052 
	C1228.984619,1067.342773 1237.617676,1095.880127 1244.999023,1125.545654 
z"/>
<path fill="#D0CBDE" opacity="1.000000" stroke="none" 
	d="
M470.834534,1528.298340 
	C487.433502,1527.867065 504.754242,1527.793823 523.001404,1527.836670 
	C517.880249,1528.692505 511.832764,1529.432251 504.914001,1530.320435 
	C493.213959,1529.864746 482.385132,1529.260620 470.834534,1528.298340 
z"/>
<path fill="#D0CBDE" opacity="1.000000" stroke="none" 
	d="
M1049.067993,1332.120850 
	C1044.655151,1332.932983 1039.394653,1333.615112 1033.299683,1334.231201 
	C1037.716919,1333.440308 1042.968628,1332.715454 1049.067993,1332.120850 
z"/>
<path fill="#504FB2" opacity="1.000000" stroke="none" 
	d="
M802.912964,1382.012695 
	C803.616455,1380.551025 805.074890,1379.062256 807.122192,1377.316650 
	C808.053894,1380.089478 806.919800,1381.906616 802.912964,1382.012695 
z"/>
<path fill="#D0CBDE" opacity="1.000000" stroke="none" 
	d="
M1023.177490,1438.069092 
	C1033.750488,1438.289429 1044.997314,1439.173462 1056.254517,1439.333496 
	C1063.844482,1439.441650 1071.446045,1438.466187 1079.048218,1438.093140 
	C1084.026001,1437.848633 1089.014282,1437.814819 1094.907959,1437.791992 
	C1087.320312,1438.798950 1078.816284,1440.494629 1070.325928,1440.429688 
	C1054.831665,1440.311401 1039.345337,1439.150513 1023.177490,1438.069092 
z"/>
<path fill="#474BBA" opacity="1.000000" stroke="none" 
	d="
M986.269592,1432.630371 
	C986.880188,1432.226440 987.753906,1432.225342 989.230225,1432.492920 
	C988.732788,1432.852295 987.632751,1432.942627 986.269592,1432.630371 
z"/>
<path fill="#D0CBDE" opacity="1.000000" stroke="none" 
	d="
M1019.477539,275.413818 
	C1010.022644,275.936737 999.859314,276.032135 988.756592,275.982178 
	C998.134460,275.553314 1008.451782,275.269806 1019.477539,275.413818 
z"/>
<path fill="#D0CBDE" opacity="1.000000" stroke="none" 
	d="
M477.635376,371.442566 
	C460.690216,371.918610 443.215637,372.017761 424.800354,371.989868 
	C429.040558,371.227173 434.211304,370.171387 439.404663,370.045013 
	C449.640961,369.795929 459.889771,370.062256 471.068451,370.034912 
	C473.704315,370.324829 475.405121,370.695251 477.635376,371.442566 
z"/>
<path fill="#8E6871" opacity="1.000000" stroke="none" 
	d="
M781.892517,387.326782 
	C801.902710,399.974976 821.794006,413.273407 841.688477,426.566986 
	C844.701721,428.580444 847.729980,430.571442 850.917603,432.683044 
	C877.107300,418.628632 903.559937,406.286682 932.886353,400.702087 
	C926.184998,406.009491 919.023071,410.682037 911.840820,415.323090 
	C896.291199,425.370850 880.726746,435.395538 865.176514,445.442383 
	C840.184448,461.589447 815.164185,477.693848 790.278259,494.003174 
	C788.343384,495.271271 787.369812,498.006378 785.949463,500.059631 
	C773.113037,491.741272 760.437500,483.160339 747.399963,475.170135 
	C730.658142,464.909698 713.625427,455.123840 696.284546,444.597473 
	C723.155212,426.740692 750.471252,409.438599 777.732910,392.051208 
	C779.306580,391.047546 780.437622,389.350006 781.892517,387.326782 
z"/>
<path fill="#6055A1" opacity="1.000000" stroke="none" 
	d="
M1005.798889,840.075806 
	C1015.188110,853.384033 1024.447144,866.787231 1034.043091,879.944641 
	C1037.063477,884.085999 1035.241577,887.429749 1033.682129,891.075500 
	C1017.568787,928.745850 999.685425,965.558594 979.930542,1001.451538 
	C936.914856,1079.607056 887.012695,1152.994019 828.036377,1220.056152 
	C817.933044,1231.544556 807.434204,1242.685059 796.542786,1254.616455 
	C793.098389,1252.523926 790.020447,1250.721680 787.008972,1248.814453 
	C739.763428,1218.891968 697.844116,1182.444092 658.265686,1143.200928 
	C641.951843,1127.025146 626.250549,1110.231445 610.298096,1092.482056 
	C611.552307,1090.162842 612.664246,1088.902710 614.023193,1088.025146 
	C630.146423,1077.613892 646.288879,1067.232300 662.461060,1056.897339 
	C687.000122,1041.215210 711.777710,1025.892456 735.997131,1009.732422 
	C743.613159,1004.650696 750.609619,999.091919 760.761841,997.860718 
	C767.161011,995.945374 772.964478,994.629761 778.514221,992.615051 
	C801.272583,984.352905 817.435425,968.539124 829.895630,947.768311 
	C834.559204,946.038086 838.721741,944.701416 842.301941,942.442078 
	C861.036438,930.619690 879.644897,918.596802 898.256714,906.580933 
	C930.481079,885.776978 962.637329,864.866882 994.942932,844.190063 
	C998.132690,842.148438 1002.160217,841.415955 1005.798889,840.075806 
z"/>
<path fill="#765E89" opacity="1.000000" stroke="none" 
	d="
M850.551514,669.744751 
	C873.551636,688.095215 894.499451,708.598083 913.799072,731.319458 
	C908.990723,734.507263 904.354370,736.457214 900.188843,739.138550 
	C865.979675,761.159546 831.863403,783.324951 797.705139,805.425049 
	C791.129456,809.679382 784.492737,813.839294 777.119629,818.029663 
	C769.612366,816.638306 762.869568,815.260010 755.454163,813.460205 
	C748.467834,813.310425 742.154236,813.582214 735.017273,813.862427 
	C715.143921,816.080994 698.507812,823.717041 684.221069,836.412720 
	C665.176941,853.335999 655.317017,874.840271 652.273193,900.025269 
	C647.959656,901.611877 644.059570,902.737915 640.756470,904.813843 
	C628.722351,912.377197 616.928589,920.321777 604.967590,928.003296 
	C589.114563,938.184448 573.134644,948.168335 557.312683,958.397034 
	C544.024963,966.987488 530.885559,975.807251 517.680542,984.525513 
	C504.417999,966.468079 491.112671,948.441833 477.926270,930.328979 
	C475.026917,926.346497 472.550232,922.056335 470.108826,916.572144 
	C471.568329,914.152771 472.682434,912.889832 474.044861,912.012390 
	C493.284790,899.622009 512.563293,887.291504 531.822937,874.931702 
	C567.270142,852.183716 602.718262,829.437073 638.152710,806.669189 
	C675.541016,782.645996 712.934143,758.630371 750.287170,734.552429 
	C783.735474,712.991516 817.132141,691.350403 850.551514,669.744751 
z"/>
<path fill="#6055A1" opacity="1.000000" stroke="none" 
	d="
M542.156006,1151.949097 
	C547.677734,1157.634521 553.096008,1163.425049 558.738708,1168.987793 
	C587.060425,1196.907959 615.440918,1224.768555 643.346558,1253.303711 
	C640.773254,1254.766357 638.437073,1255.236694 636.566833,1256.434570 
	C591.558167,1285.260010 546.633850,1314.217163 501.614960,1343.026733 
	C483.164429,1354.833984 464.529114,1366.352661 445.977844,1378.002686 
	C431.155670,1365.855347 421.740051,1349.796875 414.246918,1332.641724 
	C403.670563,1308.427734 397.512482,1283.012939 395.762695,1256.583252 
	C395.477020,1252.267944 394.936066,1247.969604 395.344299,1242.822754 
	C402.033112,1238.980713 408.186401,1236.440063 413.700073,1232.902588 
	C448.000244,1210.895386 482.095551,1188.568970 516.405945,1166.577881 
	C524.705261,1161.258545 533.557861,1156.802246 542.156006,1151.949097 
z"/>
<path fill="#7C6183" opacity="1.000000" stroke="none" 
	d="
M959.498779,648.201782 
	C944.343323,633.707214 929.450439,618.924805 913.960266,604.797180 
	C897.736694,590.000610 880.939575,575.832886 864.578979,560.205811 
	C879.163330,550.289795 893.740662,541.838196 907.927429,532.775391 
	C954.206421,503.211548 1000.409729,473.527527 1046.450439,443.594727 
	C1052.294556,439.795197 1058.023560,437.381531 1064.915161,437.725189 
	C1080.853882,455.497589 1090.243042,476.780396 1095.809692,499.515137 
	C1100.218384,517.520325 1102.375488,536.076843 1104.720581,555.212830 
	C1102.389404,556.598206 1100.708008,556.905701 1099.375000,557.758179 
	C1079.320435,570.582214 1059.282471,583.432922 1039.299561,596.368286 
	C1012.672546,613.604675 986.096619,630.920227 959.498779,648.201782 
z"/>
<path fill="#7C6183" opacity="1.000000" stroke="none" 
	d="
M850.251953,669.129272 
	C817.132141,691.350403 783.735474,712.991516 750.287170,734.552429 
	C712.934143,758.630371 675.541016,782.645996 638.152710,806.669189 
	C602.718262,829.437073 567.270142,852.183716 531.822937,874.931702 
	C512.563293,887.291504 493.284790,899.622009 474.044861,912.012390 
	C472.682434,912.889832 471.568329,914.152771 470.028076,915.887695 
	C466.754517,911.833984 463.611877,907.231201 460.866150,902.402649 
	C455.126495,892.309021 449.596130,882.096375 444.147736,870.596985 
	C446.258575,867.491333 447.994843,865.394287 450.182526,864.011536 
	C457.195648,859.578796 464.486847,855.583740 471.473022,851.110962 
	C507.254425,828.202698 542.969849,805.191345 578.716064,782.228149 
	C615.859619,758.367249 653.022339,734.536255 690.157837,710.662903 
	C726.734558,687.148743 763.339539,663.677490 799.784058,639.959900 
	C804.229919,637.066589 808.557373,635.502380 813.725342,636.014282 
	C825.801025,646.847473 837.876648,657.680725 850.251953,669.129272 
z"/>
<path fill="#6D5B93" opacity="1.000000" stroke="none" 
	d="
M777.884155,818.042725 
	C784.492737,813.839294 791.129456,809.679382 797.705139,805.425049 
	C831.863403,783.324951 865.979675,761.159546 900.188843,739.138550 
	C904.354370,736.457214 908.990723,734.507263 914.117249,731.928223 
	C936.547913,756.344055 958.471558,780.877258 979.897095,805.838074 
	C988.926819,816.357727 996.905640,827.779419 1005.580505,839.433411 
	C1002.160217,841.415955 998.132690,842.148438 994.942932,844.190063 
	C962.637329,864.866882 930.481079,885.776978 898.256714,906.580933 
	C879.644897,918.596802 861.036438,930.619690 842.301941,942.442078 
	C838.721741,944.701416 834.559204,946.038086 830.092773,947.028931 
	C830.160217,944.729431 830.812744,943.206421 831.438599,941.672546 
	C846.520020,904.709473 837.772156,863.705933 807.853455,837.140259 
	C799.107117,829.374146 787.941101,824.332947 777.884155,818.042725 
z"/>
<path fill="#966B68" opacity="1.000000" stroke="none" 
	d="
M503.904816,477.522491 
	C538.358643,480.551941 571.165466,490.046326 603.230774,503.886108 
	C598.333435,507.629700 593.131958,509.957245 588.392456,513.003601 
	C540.644775,543.694214 492.966888,574.493652 445.281799,605.281738 
	C422.692932,619.866455 400.257843,634.695862 377.459167,648.944092 
	C372.338470,652.144165 367.514252,657.175781 360.395966,655.992004 
	C355.588776,632.568481 355.436554,608.631653 358.652252,585.403931 
	C363.053162,553.615540 375.059082,524.451904 401.381989,503.391846 
	C421.011414,487.687012 443.666412,480.043915 470.159241,477.789185 
	C482.581787,477.723541 493.243286,477.623016 503.904816,477.522491 
z"/>
<path fill="#856479" opacity="1.000000" stroke="none" 
	d="
M1064.622314,437.087463 
	C1058.023560,437.381531 1052.294556,439.795197 1046.450439,443.594727 
	C1000.409729,473.527527 954.206421,503.211548 907.927429,532.775391 
	C893.740662,541.838196 879.163330,550.289795 864.337463,559.571350 
	C838.165710,540.476196 812.421448,520.830994 786.313293,500.622742 
	C787.369812,498.006378 788.343384,495.271271 790.278259,494.003174 
	C815.164185,477.693848 840.184448,461.589447 865.176514,445.442383 
	C880.726746,435.395538 896.291199,425.370850 911.840820,415.323090 
	C919.023071,410.682037 926.184998,406.009491 933.674927,400.757507 
	C942.763367,398.687439 951.533020,397.211090 962.055969,395.796204 
	C969.858643,395.713776 975.908081,395.569885 981.957458,395.426025 
	C1014.966370,397.953552 1042.868286,410.735382 1064.622314,437.087463 
z"/>
<path fill="#5652AB" opacity="1.000000" stroke="none" 
	d="
M446.256653,1378.614502 
	C464.529114,1366.352661 483.164429,1354.833984 501.614960,1343.026733 
	C546.633850,1314.217163 591.558167,1285.260010 636.566833,1256.434570 
	C638.437073,1255.236694 640.773254,1254.766357 643.663086,1253.907959 
	C648.512146,1257.635376 652.451538,1261.578735 656.716187,1265.131592 
	C659.719971,1267.634033 663.261963,1269.477905 666.398560,1271.835205 
	C686.583801,1287.005493 706.723450,1302.236328 727.065796,1317.588867 
	C726.577515,1318.150513 725.851868,1319.286133 724.856628,1320.086670 
	C686.846069,1350.665161 646.688660,1377.848267 600.539551,1394.662354 
	C584.712952,1400.428711 567.935669,1403.585693 549.854492,1407.947021 
	C534.754822,1408.058716 521.393372,1408.158081 508.031982,1408.257568 
	C484.322235,1405.382080 463.960663,1395.414185 446.256653,1378.614502 
z"/>
<path fill="#80627F" opacity="1.000000" stroke="none" 
	d="
M813.610779,635.356934 
	C808.557373,635.502380 804.229919,637.066589 799.784058,639.959900 
	C763.339539,663.677490 726.734558,687.148743 690.157837,710.662903 
	C653.022339,734.536255 615.859619,758.367249 578.716064,782.228149 
	C542.969849,805.191345 507.254425,828.202698 471.473022,851.110962 
	C464.486847,855.583740 457.195648,859.578796 450.182526,864.011536 
	C447.994843,865.394287 446.258575,867.491333 444.009338,869.923035 
	C436.446106,857.764526 429.189209,844.944275 421.962494,830.703369 
	C424.036865,827.223206 425.793945,824.723755 428.170197,823.173340 
	C449.220581,809.439453 470.341339,795.811890 491.552948,782.328430 
	C494.570190,780.410461 498.185211,779.432800 501.523590,778.019958 
	C507.225159,786.478455 512.926697,794.936951 519.099548,804.094604 
	C535.352966,777.395325 551.287720,751.219543 568.397583,724.512939 
	C571.397278,723.306396 573.417419,722.935669 575.017822,721.910034 
	C612.466614,697.907288 649.888489,673.862122 687.275146,649.762634 
	C710.154785,635.014343 732.888367,620.037292 755.884705,605.474365 
	C759.942627,602.904663 764.972839,601.870422 769.554077,600.127136 
	C784.201477,611.651306 798.848816,623.175415 813.610779,635.356934 
z"/>
<path fill="#6D5B93" opacity="1.000000" stroke="none" 
	d="
M517.869751,985.164673 
	C530.885559,975.807251 544.024963,966.987488 557.312683,958.397034 
	C573.134644,948.168335 589.114563,938.184448 604.967590,928.003296 
	C616.928589,920.321777 628.722351,912.377197 640.756470,904.813843 
	C644.059570,902.737915 647.959656,901.611877 652.365723,900.947571 
	C653.188721,904.497314 653.163940,907.152527 653.284851,909.801025 
	C655.138245,950.404785 681.656738,983.896423 720.584534,995.232727 
	C733.597656,999.022339 746.812256,998.318359 760.049561,998.139099 
	C750.609619,999.091919 743.613159,1004.650696 735.997131,1009.732422 
	C711.777710,1025.892456 687.000122,1041.215210 662.461060,1056.897339 
	C646.288879,1067.232300 630.146423,1077.613892 614.023193,1088.025146 
	C612.664246,1088.902710 611.552307,1090.162842 610.005249,1091.892578 
	C589.897705,1070.522095 569.833191,1048.745117 550.429138,1026.394653 
	C539.093689,1013.337830 528.813782,999.364685 517.869751,985.164673 
z"/>
<path fill="#8E6871" opacity="1.000000" stroke="none" 
	d="
M360.298462,656.811462 
	C367.514252,657.175781 372.338470,652.144165 377.459167,648.944092 
	C400.257843,634.695862 422.692932,619.866455 445.281799,605.281738 
	C492.966888,574.493652 540.644775,543.694214 588.392456,513.003601 
	C593.131958,509.957245 598.333435,507.629700 603.724182,504.399750 
	C604.471375,503.849976 604.814941,503.868958 605.962036,504.546967 
	C607.450256,505.399200 608.135132,505.592438 608.819946,505.785645 
	C609.731079,506.054626 610.642212,506.323578 612.245239,506.796783 
	C611.609680,508.136658 611.321472,509.409424 610.559570,510.255768 
	C553.938782,573.149841 505.954315,642.276184 461.612488,715.442261 
	C457.004730,717.038757 453.174652,717.424988 450.212128,719.232910 
	C440.024139,725.450378 430.237976,732.322693 420.112335,738.647095 
	C409.478271,745.289062 398.629669,751.587585 387.874817,758.036133 
	C378.033997,735.811035 371.632172,712.483276 366.093109,688.918274 
	C363.667236,678.597717 362.137573,668.066467 360.298462,656.811462 
z"/>
<path fill="#6D5B93" opacity="1.000000" stroke="none" 
	d="
M541.911682,1151.319336 
	C533.557861,1156.802246 524.705261,1161.258545 516.405945,1166.577881 
	C482.095551,1188.568970 448.000244,1210.895386 413.700073,1232.902588 
	C408.186401,1236.440063 402.033112,1238.980713 395.480286,1242.006348 
	C394.702057,1225.070679 393.665894,1208.052002 394.710449,1191.161865 
	C398.175781,1135.127319 409.550751,1080.498779 425.750549,1026.824463 
	C426.693604,1023.699890 427.712860,1020.598389 429.272736,1015.663391 
	C464.262604,1063.932495 502.204193,1107.954834 541.911682,1151.319336 
z"/>
<path fill="#705C90" opacity="1.000000" stroke="none" 
	d="
M959.805847,648.811890 
	C986.096619,630.920227 1012.672546,613.604675 1039.299561,596.368286 
	C1059.282471,583.432922 1079.320435,570.582214 1099.375000,557.758179 
	C1100.708008,556.905701 1102.389404,556.598206 1104.600098,556.018738 
	C1107.002319,580.256775 1106.610596,604.459351 1104.575073,628.711426 
	C1100.611084,675.941711 1090.722290,721.982056 1077.900391,767.481934 
	C1077.099731,770.323364 1076.114624,773.112793 1075.275146,775.739258 
	C1074.596558,775.910339 1074.276367,776.043152 1073.950684,776.057983 
	C1073.646484,776.072021 1073.284180,776.043091 1073.039307,775.888123 
	C1072.487793,775.539001 1071.915161,775.169617 1071.486572,774.687927 
	C1034.353760,732.939941 997.233765,691.180542 959.805847,648.811890 
z"/>
<path fill="#856479" opacity="1.000000" stroke="none" 
	d="
M769.205200,599.583496 
	C764.972839,601.870422 759.942627,602.904663 755.884705,605.474365 
	C732.888367,620.037292 710.154785,635.014343 687.275146,649.762634 
	C649.888489,673.862122 612.466614,697.907288 575.017822,721.910034 
	C573.417419,722.935669 571.397278,723.306396 568.841003,723.994873 
	C572.360413,717.355408 576.485840,710.618958 580.882568,704.064514 
	C614.635986,653.746216 651.761597,606.085571 693.185364,561.819458 
	C695.674133,559.159912 698.047424,556.392212 701.153198,552.914856 
	C724.987488,567.233093 747.190186,582.730225 769.205200,599.583496 
z"/>
<path fill="#83637C" opacity="1.000000" stroke="none" 
	d="
M387.914062,758.785034 
	C398.629669,751.587585 409.478271,745.289062 420.112335,738.647095 
	C430.237976,732.322693 440.024139,725.450378 450.212128,719.232910 
	C453.174652,717.424988 457.004730,717.038757 461.217438,715.996765 
	C475.061157,736.241333 488.124573,756.490051 501.355774,777.379333 
	C498.185211,779.432800 494.570190,780.410461 491.552948,782.328430 
	C470.341339,795.811890 449.220581,809.439453 428.170197,823.173340 
	C425.793945,824.723755 424.036865,827.223206 421.857086,830.024048 
	C410.091766,813.450928 401.665436,794.530884 393.954254,775.258362 
	C391.870453,770.050293 389.949219,764.777161 387.914062,758.785034 
z"/>
<path fill="#D0CBDE" opacity="1.000000" stroke="none" 
	d="
M508.672180,1408.775269 
	C521.393372,1408.158081 534.754822,1408.058716 549.039490,1408.085571 
	C547.827820,1408.831421 545.689575,1409.992920 543.558411,1409.980347 
	C532.142090,1409.912720 520.727539,1409.552368 508.672180,1408.775269 
z"/>
<path fill="#D0CBDE" opacity="1.000000" stroke="none" 
	d="
M503.261047,477.031860 
	C493.243286,477.623016 482.581787,477.723541 471.017273,477.646881 
	C480.948578,477.160217 491.782928,476.850739 503.261047,477.031860 
z"/>
<path fill="#D0CBDE" opacity="1.000000" stroke="none" 
	d="
M981.331970,394.960236 
	C975.908081,395.569885 969.858643,395.713776 962.925659,395.666016 
	C968.263489,395.147705 974.484985,394.821075 981.331970,394.960236 
z"/>
<path fill="#966B68" opacity="1.000000" stroke="none" 
	d="
M608.483276,505.347748 
	C608.135132,505.592438 607.450256,505.399200 606.412964,504.797974 
	C606.755859,504.563293 607.451172,504.736572 608.483276,505.347748 
z"/>
<path fill="#FEFEFE" opacity="1.000000" stroke="none" 
	d="
M760.761841,997.860718 
	C746.812256,998.318359 733.597656,999.022339 720.584534,995.232727 
	C681.656738,983.896423 655.138245,950.404785 653.284851,909.801025 
	C653.163940,907.152527 653.188721,904.497314 653.053101,900.922974 
	C655.317017,874.840271 665.176941,853.335999 684.221069,836.412720 
	C698.507812,823.717041 715.143921,816.080994 735.932190,814.001343 
	C743.822571,814.048462 749.974670,813.965088 756.126831,813.881714 
	C762.869568,815.260010 769.612366,816.638306 777.119629,818.029663 
	C787.941101,824.332947 799.107117,829.374146 807.853455,837.140259 
	C837.772156,863.705933 846.520020,904.709473 831.438599,941.672546 
	C830.812744,943.206421 830.160217,944.729431 829.322998,946.996887 
	C817.435425,968.539124 801.272583,984.352905 778.514221,992.615051 
	C772.964478,994.629761 767.161011,995.945374 760.761841,997.860718 
z"/>
<path fill="#D0CBDE" opacity="1.000000" stroke="none" 
	d="
M755.454163,813.460205 
	C749.974670,813.965088 743.822571,814.048462 736.755493,813.992920 
	C742.154236,813.582214 748.467834,813.310425 755.454163,813.460205 
z"/>
</svg>